0
SECTION
2
HEADER
9
$INSUNITS
70
4
0
ENDSEC
0
SECTION
2
TABLES
0
TABLE
2
LTYPE
0
LTYPE
72
65
70
64
2
CONTINUOUS
3
______
73
0
40
0
0
ENDTAB
0
TABLE
2
LAYER
0
ENDTAB
0
ENDSEC
0
SECTION
2
ENTITIES
0
LINE
8
0
10
139
20
-159
11
139
21
-107
0
LINE
8
0
10
141
20
-105
11
172.5
21
-105
0
LINE
8
0
10
174.5
20
-103
11
174.5
21
-95
0
LINE
8
0
10
176.5
20
-93
11
191
21
-93
0
LINE
8
0
10
193
20
-91
11
193
21
-89
0
LINE
8
0
10
195
20
-87
11
213
21
-87
0
LINE
8
0
10
215
20
-89
11
215
21
-90
0
LINE
8
0
10
217
20
-92
11
270.45
21
-92
0
LINE
8
0
10
272.2887048
20
-160.885991
11
264.1658213
21
-178.305571
0
LINE
8
0
10
261.5079692
20
-179.2729499
11
243.6169459
21
-170.9302288
0
LINE
8
0
10
243.1264879
20
-170.7745629
11
222.0262043
21
-166.9712815
0
LINE
8
0
10
221.4846225
20
-166.9483061
11
202.478784
21
-168.7312754
0
LINE
8
0
10
200.3019945
20
-166.9399048
11
198.6808145
21
-150.8001136
0
LINE
8
0
10
196.6908282
20
-149
11
181
21
-149
0
LINE
8
0
10
179
20
-151
11
179
21
-159
0
LINE
8
0
10
141
20
-161
11
177
21
-161
0
ARC
8
0
10
141
20
-107
40
2
50
90
51
180
0
ARC
8
0
10
172.5
20
-103
40
2
50
270
51
0
0
ARC
8
0
10
176.5
20
-95
40
2
50
90
51
180
0
ARC
8
0
10
191
20
-91
40
2
50
270
51
0
0
ARC
8
0
10
195
20
-89
40
2
50
90
51
180
0
ARC
8
0
10
213
20
-89
40
2
50
0
51
90
0
ARC
8
0
10
217
20
-90
40
2
50
180
51
270
0
ARC
8
0
10
270.4760892
20
-160.0407544
40
2
50
334.9999983
51
369.2645904
0
ARC
8
0
10
262.3532057
20
-177.4603344
40
2
50
244.9999983
51
334.9999983
0
ARC
8
0
10
242.7717093
20
-172.7428444
40
2
50
64.9999983
51
79.7822697
0
ARC
8
0
10
221.6714257
20
-168.939563
40
2
50
79.7822697
51
95.3593292
0
ARC
8
0
10
202.2919808
20
-166.7400184
40
2
50
185.7358999
51
275.3593292
0
ARC
8
0
10
196.6908282
20
-151
40
2
50
5.7358999
51
90
0
ARC
8
0
10
181
20
-151
40
2
50
90
51
180
0
ARC
8
0
10
177
20
-159
40
2
50
270
51
0
0
ARC
8
0
10
141
20
-159
40
2
50
180
51
270
0
LINE
8
0
10
272.45
20
-159.7187666
11
272.45
21
-94
0
ARC
8
0
10
270.45
20
-94
40
2
50
0
51
90
0
ENDSEC
0
EOF