0
SECTION
2
HEADER
9
$INSUNITS
70
4
0
ENDSEC
0
SECTION
2
TABLES
0
TABLE
2
LTYPE
0
LTYPE
72
65
70
64
2
CONTINUOUS
3
______
73
0
40
0
0
ENDTAB
0
TABLE
2
LAYER
0
ENDTAB
0
ENDSEC
0
SECTION
2
ENTITIES
0
LINE
8
0
10
141.25
20
-158.25
11
158.75
21
-158.25
0
LINE
8
0
10
158.75
20
-158.25
11
158.75
21
-141.75
0
LINE
8
0
10
158.75
20
-141.75
11
141.25
21
-141.75
0
LINE
8
0
10
141.25
20
-141.75
11
141.25
21
-158.25
0
LINE
8
0
10
141.25
20
-141.25
11
158.75
21
-141.25
0
LINE
8
0
10
158.75
20
-141.25
11
158.75
21
-124.75
0
LINE
8
0
10
158.75
20
-124.75
11
141.25
21
-124.75
0
LINE
8
0
10
141.25
20
-124.75
11
141.25
21
-141.25
0
LINE
8
0
10
141.25
20
-124.25
11
158.75
21
-124.25
0
LINE
8
0
10
158.75
20
-124.25
11
158.75
21
-107.75
0
LINE
8
0
10
158.75
20
-107.75
11
141.25
21
-107.75
0
LINE
8
0
10
141.25
20
-107.75
11
141.25
21
-124.25
0
LINE
8
0
10
159.25
20
-158.25
11
176.75
21
-158.25
0
LINE
8
0
10
176.75
20
-158.25
11
176.75
21
-141.75
0
LINE
8
0
10
176.75
20
-141.75
11
159.25
21
-141.75
0
LINE
8
0
10
159.25
20
-141.75
11
159.25
21
-158.25
0
LINE
8
0
10
159.25
20
-141.25
11
176.75
21
-141.25
0
LINE
8
0
10
176.75
20
-141.25
11
176.75
21
-124.75
0
LINE
8
0
10
176.75
20
-124.75
11
159.25
21
-124.75
0
LINE
8
0
10
159.25
20
-124.75
11
159.25
21
-141.25
0
LINE
8
0
10
159.25
20
-124.25
11
176.75
21
-124.25
0
LINE
8
0
10
176.75
20
-124.25
11
176.75
21
-107.75
0
LINE
8
0
10
176.75
20
-107.75
11
159.25
21
-107.75
0
LINE
8
0
10
159.25
20
-107.75
11
159.25
21
-124.25
0
LINE
8
0
10
177.25
20
-146.25
11
194.75
21
-146.25
0
LINE
8
0
10
194.75
20
-146.25
11
194.75
21
-129.75
0
LINE
8
0
10
194.75
20
-129.75
11
177.25
21
-129.75
0
LINE
8
0
10
177.25
20
-129.75
11
177.25
21
-146.25
0
LINE
8
0
10
177.25
20
-129.25
11
194.75
21
-129.25
0
LINE
8
0
10
194.75
20
-129.25
11
194.75
21
-112.75
0
LINE
8
0
10
194.75
20
-112.75
11
177.25
21
-112.75
0
LINE
8
0
10
177.25
20
-112.75
11
177.25
21
-129.25
0
LINE
8
0
10
177.25
20
-112.25
11
194.75
21
-112.25
0
LINE
8
0
10
194.75
20
-112.25
11
194.75
21
-95.75
0
LINE
8
0
10
194.75
20
-95.75
11
177.25
21
-95.75
0
LINE
8
0
10
177.25
20
-95.75
11
177.25
21
-112.25
0
LINE
8
0
10
195.25
20
-140.25
11
212.75
21
-140.25
0
LINE
8
0
10
212.75
20
-140.25
11
212.75
21
-123.75
0
LINE
8
0
10
212.75
20
-123.75
11
195.25
21
-123.75
0
LINE
8
0
10
195.25
20
-123.75
11
195.25
21
-140.25
0
LINE
8
0
10
195.25
20
-123.25
11
212.75
21
-123.25
0
LINE
8
0
10
212.75
20
-123.25
11
212.75
21
-106.75
0
LINE
8
0
10
212.75
20
-106.75
11
195.25
21
-106.75
0
LINE
8
0
10
195.25
20
-106.75
11
195.25
21
-123.25
0
LINE
8
0
10
195.25
20
-106.25
11
212.75
21
-106.25
0
LINE
8
0
10
212.75
20
-106.25
11
212.75
21
-89.75
0
LINE
8
0
10
212.75
20
-89.75
11
195.25
21
-89.75
0
LINE
8
0
10
195.25
20
-89.75
11
195.25
21
-106.25
0
LINE
8
0
10
213.25
20
-145.25
11
230.75
21
-145.25
0
LINE
8
0
10
230.75
20
-145.25
11
230.75
21
-128.75
0
LINE
8
0
10
230.75
20
-128.75
11
213.25
21
-128.75
0
LINE
8
0
10
213.25
20
-128.75
11
213.25
21
-145.25
0
LINE
8
0
10
213.25
20
-128.25
11
230.75
21
-128.25
0
LINE
8
0
10
230.75
20
-128.25
11
230.75
21
-111.75
0
LINE
8
0
10
230.75
20
-111.75
11
213.25
21
-111.75
0
LINE
8
0
10
213.25
20
-111.75
11
213.25
21
-128.25
0
LINE
8
0
10
213.25
20
-111.25
11
230.75
21
-111.25
0
LINE
8
0
10
230.75
20
-111.25
11
230.75
21
-94.75
0
LINE
8
0
10
230.75
20
-94.75
11
213.25
21
-94.75
0
LINE
8
0
10
213.25
20
-94.75
11
213.25
21
-111.25
0
LINE
8
0
10
231.25
20
-145.25
11
248.75
21
-145.25
0
LINE
8
0
10
248.75
20
-145.25
11
248.75
21
-128.75
0
LINE
8
0
10
248.75
20
-128.75
11
231.25
21
-128.75
0
LINE
8
0
10
231.25
20
-128.75
11
231.25
21
-145.25
0
LINE
8
0
10
231.25
20
-128.25
11
248.75
21
-128.25
0
LINE
8
0
10
248.75
20
-128.25
11
248.75
21
-111.75
0
LINE
8
0
10
248.75
20
-111.75
11
231.25
21
-111.75
0
LINE
8
0
10
231.25
20
-111.75
11
231.25
21
-128.25
0
LINE
8
0
10
231.25
20
-111.25
11
248.75
21
-111.25
0
LINE
8
0
10
248.75
20
-111.25
11
248.75
21
-94.75
0
LINE
8
0
10
248.75
20
-94.75
11
231.25
21
-94.75
0
LINE
8
0
10
231.25
20
-94.75
11
231.25
21
-111.25
0
LINE
8
0
10
202.5023313
20
-165.981219
11
219.9357385
21
-164.4559935
0
LINE
8
0
10
219.9357385
20
-164.4559935
11
218.4976687
21
-148.018781
0
LINE
8
0
10
218.4976687
20
-148.018781
11
201.0642615
21
-149.5440065
0
LINE
8
0
10
201.0642615
20
-149.5440065
11
202.5023313
21
-165.981219
0
LINE
8
0
10
224.4503347
20
-164.6052424
11
241.6844704
21
-167.6440855
0
LINE
8
0
10
241.6844704
20
-167.6440855
11
244.5496653
21
-151.3947576
0
LINE
8
0
10
244.5496653
20
-151.3947576
11
227.3155296
21
-148.3559145
0
LINE
8
0
10
227.3155296
20
-148.3559145
11
224.4503347
21
-164.6052424
0
LINE
8
0
10
246.5832062
20
-169.2791295
11
262.4435925
21
-176.674949
0
LINE
8
0
10
262.4435925
20
-176.674949
11
269.4167938
21
-161.7208705
0
LINE
8
0
10
269.4167938
20
-161.7208705
11
253.5564075
21
-154.325051
0
LINE
8
0
10
253.5564075
20
-154.325051
11
246.5832062
21
-169.2791295
0
ENDSEC
0
EOF