%TF.GenerationSoftware,KiCad,Pcbnew,8.0.7*%
%TF.CreationDate,2024-12-30T14:18:56+04:00*%
%TF.ProjectId,ergoblock,6572676f-626c-46f6-936b-2e6b69636164,v1.0.0*%
%TF.SameCoordinates,Original*%
%TF.FileFunction,Legend,Top*%
%TF.FilePolarity,Positive*%
%FSLAX46Y46*%
G04 Gerber Fmt 4.6, Leading zero omitted, Abs format (unit mm)*
G04 Created by KiCad (PCBNEW 8.0.7) date 2024-12-30 14:18:56*
%MOMM*%
%LPD*%
G01*
G04 APERTURE LIST*
%ADD10C,0.187500*%
%ADD11C,0.250000*%
%ADD12C,0.150000*%
%ADD13C,0.100000*%
%ADD14R,1.752600X1.752600*%
%ADD15C,1.752600*%
G04 APERTURE END LIST*
D10*
X251894783Y-139944059D02*
X252037640Y-139991678D01*
X252037640Y-139991678D02*
X252085259Y-140039297D01*
X252085259Y-140039297D02*
X252132878Y-140134535D01*
X252132878Y-140134535D02*
X252132878Y-140277392D01*
X252132878Y-140277392D02*
X252085259Y-140372630D01*
X252085259Y-140372630D02*
X252037640Y-140420250D01*
X252037640Y-140420250D02*
X251942402Y-140467869D01*
X251942402Y-140467869D02*
X251561450Y-140467869D01*
X251561450Y-140467869D02*
X251561450Y-139467869D01*
X251561450Y-139467869D02*
X251894783Y-139467869D01*
X251894783Y-139467869D02*
X251990021Y-139515488D01*
X251990021Y-139515488D02*
X252037640Y-139563107D01*
X252037640Y-139563107D02*
X252085259Y-139658345D01*
X252085259Y-139658345D02*
X252085259Y-139753583D01*
X252085259Y-139753583D02*
X252037640Y-139848821D01*
X252037640Y-139848821D02*
X251990021Y-139896440D01*
X251990021Y-139896440D02*
X251894783Y-139944059D01*
X251894783Y-139944059D02*
X251561450Y-139944059D01*
X252466212Y-139801202D02*
X252704307Y-140467869D01*
X252942402Y-139801202D02*
X252704307Y-140467869D01*
X252704307Y-140467869D02*
X252609069Y-140705964D01*
X252609069Y-140705964D02*
X252561450Y-140753583D01*
X252561450Y-140753583D02*
X252466212Y-140801202D01*
X254085260Y-139467869D02*
X254085260Y-140277392D01*
X254085260Y-140277392D02*
X254132879Y-140372630D01*
X254132879Y-140372630D02*
X254180498Y-140420250D01*
X254180498Y-140420250D02*
X254275736Y-140467869D01*
X254275736Y-140467869D02*
X254466212Y-140467869D01*
X254466212Y-140467869D02*
X254561450Y-140420250D01*
X254561450Y-140420250D02*
X254609069Y-140372630D01*
X254609069Y-140372630D02*
X254656688Y-140277392D01*
X254656688Y-140277392D02*
X254656688Y-139467869D01*
X255132879Y-140467869D02*
X255132879Y-139801202D01*
X255132879Y-139896440D02*
X255180498Y-139848821D01*
X255180498Y-139848821D02*
X255275736Y-139801202D01*
X255275736Y-139801202D02*
X255418593Y-139801202D01*
X255418593Y-139801202D02*
X255513831Y-139848821D01*
X255513831Y-139848821D02*
X255561450Y-139944059D01*
X255561450Y-139944059D02*
X255561450Y-140467869D01*
X255561450Y-139944059D02*
X255609069Y-139848821D01*
X255609069Y-139848821D02*
X255704307Y-139801202D01*
X255704307Y-139801202D02*
X255847164Y-139801202D01*
X255847164Y-139801202D02*
X255942403Y-139848821D01*
X255942403Y-139848821D02*
X255990022Y-139944059D01*
X255990022Y-139944059D02*
X255990022Y-140467869D01*
X256847164Y-140420250D02*
X256751926Y-140467869D01*
X256751926Y-140467869D02*
X256561450Y-140467869D01*
X256561450Y-140467869D02*
X256466212Y-140420250D01*
X256466212Y-140420250D02*
X256418593Y-140325011D01*
X256418593Y-140325011D02*
X256418593Y-139944059D01*
X256418593Y-139944059D02*
X256466212Y-139848821D01*
X256466212Y-139848821D02*
X256561450Y-139801202D01*
X256561450Y-139801202D02*
X256751926Y-139801202D01*
X256751926Y-139801202D02*
X256847164Y-139848821D01*
X256847164Y-139848821D02*
X256894783Y-139944059D01*
X256894783Y-139944059D02*
X256894783Y-140039297D01*
X256894783Y-140039297D02*
X256418593Y-140134535D01*
X257323355Y-140467869D02*
X257323355Y-139801202D01*
X257323355Y-139991678D02*
X257370974Y-139896440D01*
X257370974Y-139896440D02*
X257418593Y-139848821D01*
X257418593Y-139848821D02*
X257513831Y-139801202D01*
X257513831Y-139801202D02*
X257609069Y-139801202D01*
X258656689Y-140182154D02*
X259132879Y-140182154D01*
X258561451Y-140467869D02*
X258894784Y-139467869D01*
X258894784Y-139467869D02*
X259228117Y-140467869D01*
X259561451Y-140467869D02*
X259561451Y-139467869D01*
X259561451Y-139848821D02*
X259656689Y-139801202D01*
X259656689Y-139801202D02*
X259847165Y-139801202D01*
X259847165Y-139801202D02*
X259942403Y-139848821D01*
X259942403Y-139848821D02*
X259990022Y-139896440D01*
X259990022Y-139896440D02*
X260037641Y-139991678D01*
X260037641Y-139991678D02*
X260037641Y-140277392D01*
X260037641Y-140277392D02*
X259990022Y-140372630D01*
X259990022Y-140372630D02*
X259942403Y-140420250D01*
X259942403Y-140420250D02*
X259847165Y-140467869D01*
X259847165Y-140467869D02*
X259656689Y-140467869D01*
X259656689Y-140467869D02*
X259561451Y-140420250D01*
X260894784Y-140467869D02*
X260894784Y-139467869D01*
X260894784Y-140420250D02*
X260799546Y-140467869D01*
X260799546Y-140467869D02*
X260609070Y-140467869D01*
X260609070Y-140467869D02*
X260513832Y-140420250D01*
X260513832Y-140420250D02*
X260466213Y-140372630D01*
X260466213Y-140372630D02*
X260418594Y-140277392D01*
X260418594Y-140277392D02*
X260418594Y-139991678D01*
X260418594Y-139991678D02*
X260466213Y-139896440D01*
X260466213Y-139896440D02*
X260513832Y-139848821D01*
X260513832Y-139848821D02*
X260609070Y-139801202D01*
X260609070Y-139801202D02*
X260799546Y-139801202D01*
X260799546Y-139801202D02*
X260894784Y-139848821D01*
X261799546Y-139801202D02*
X261799546Y-140467869D01*
X261370975Y-139801202D02*
X261370975Y-140325011D01*
X261370975Y-140325011D02*
X261418594Y-140420250D01*
X261418594Y-140420250D02*
X261513832Y-140467869D01*
X261513832Y-140467869D02*
X261656689Y-140467869D01*
X261656689Y-140467869D02*
X261751927Y-140420250D01*
X261751927Y-140420250D02*
X261799546Y-140372630D01*
X262275737Y-140467869D02*
X262275737Y-139801202D01*
X262275737Y-139991678D02*
X262323356Y-139896440D01*
X262323356Y-139896440D02*
X262370975Y-139848821D01*
X262370975Y-139848821D02*
X262466213Y-139801202D01*
X262466213Y-139801202D02*
X262561451Y-139801202D01*
X264228118Y-140467869D02*
X263894785Y-139991678D01*
X263656690Y-140467869D02*
X263656690Y-139467869D01*
X263656690Y-139467869D02*
X264037642Y-139467869D01*
X264037642Y-139467869D02*
X264132880Y-139515488D01*
X264132880Y-139515488D02*
X264180499Y-139563107D01*
X264180499Y-139563107D02*
X264228118Y-139658345D01*
X264228118Y-139658345D02*
X264228118Y-139801202D01*
X264228118Y-139801202D02*
X264180499Y-139896440D01*
X264180499Y-139896440D02*
X264132880Y-139944059D01*
X264132880Y-139944059D02*
X264037642Y-139991678D01*
X264037642Y-139991678D02*
X263656690Y-139991678D01*
X265037642Y-140420250D02*
X264942404Y-140467869D01*
X264942404Y-140467869D02*
X264751928Y-140467869D01*
X264751928Y-140467869D02*
X264656690Y-140420250D01*
X264656690Y-140420250D02*
X264609071Y-140325011D01*
X264609071Y-140325011D02*
X264609071Y-139944059D01*
X264609071Y-139944059D02*
X264656690Y-139848821D01*
X264656690Y-139848821D02*
X264751928Y-139801202D01*
X264751928Y-139801202D02*
X264942404Y-139801202D01*
X264942404Y-139801202D02*
X265037642Y-139848821D01*
X265037642Y-139848821D02*
X265085261Y-139944059D01*
X265085261Y-139944059D02*
X265085261Y-140039297D01*
X265085261Y-140039297D02*
X264609071Y-140134535D01*
X265513833Y-140467869D02*
X265513833Y-139467869D01*
X265942404Y-140467869D02*
X265942404Y-139944059D01*
X265942404Y-139944059D02*
X265894785Y-139848821D01*
X265894785Y-139848821D02*
X265799547Y-139801202D01*
X265799547Y-139801202D02*
X265656690Y-139801202D01*
X265656690Y-139801202D02*
X265561452Y-139848821D01*
X265561452Y-139848821D02*
X265513833Y-139896440D01*
X266418595Y-140467869D02*
X266418595Y-139801202D01*
X266418595Y-139896440D02*
X266466214Y-139848821D01*
X266466214Y-139848821D02*
X266561452Y-139801202D01*
X266561452Y-139801202D02*
X266704309Y-139801202D01*
X266704309Y-139801202D02*
X266799547Y-139848821D01*
X266799547Y-139848821D02*
X266847166Y-139944059D01*
X266847166Y-139944059D02*
X266847166Y-140467869D01*
X266847166Y-139944059D02*
X266894785Y-139848821D01*
X266894785Y-139848821D02*
X266990023Y-139801202D01*
X266990023Y-139801202D02*
X267132880Y-139801202D01*
X267132880Y-139801202D02*
X267228119Y-139848821D01*
X267228119Y-139848821D02*
X267275738Y-139944059D01*
X267275738Y-139944059D02*
X267275738Y-140467869D01*
X268180499Y-140467869D02*
X268180499Y-139944059D01*
X268180499Y-139944059D02*
X268132880Y-139848821D01*
X268132880Y-139848821D02*
X268037642Y-139801202D01*
X268037642Y-139801202D02*
X267847166Y-139801202D01*
X267847166Y-139801202D02*
X267751928Y-139848821D01*
X268180499Y-140420250D02*
X268085261Y-140467869D01*
X268085261Y-140467869D02*
X267847166Y-140467869D01*
X267847166Y-140467869D02*
X267751928Y-140420250D01*
X267751928Y-140420250D02*
X267704309Y-140325011D01*
X267704309Y-140325011D02*
X267704309Y-140229773D01*
X267704309Y-140229773D02*
X267751928Y-140134535D01*
X267751928Y-140134535D02*
X267847166Y-140086916D01*
X267847166Y-140086916D02*
X268085261Y-140086916D01*
X268085261Y-140086916D02*
X268180499Y-140039297D01*
X268656690Y-139801202D02*
X268656690Y-140467869D01*
X268656690Y-139896440D02*
X268704309Y-139848821D01*
X268704309Y-139848821D02*
X268799547Y-139801202D01*
X268799547Y-139801202D02*
X268942404Y-139801202D01*
X268942404Y-139801202D02*
X269037642Y-139848821D01*
X269037642Y-139848821D02*
X269085261Y-139944059D01*
X269085261Y-139944059D02*
X269085261Y-140467869D01*
D11*
X201888282Y-142664619D02*
X201888282Y-143378904D01*
X201888282Y-143378904D02*
X201840663Y-143521761D01*
X201840663Y-143521761D02*
X201745425Y-143617000D01*
X201745425Y-143617000D02*
X201602568Y-143664619D01*
X201602568Y-143664619D02*
X201507330Y-143664619D01*
X202840663Y-143664619D02*
X202364473Y-143664619D01*
X202364473Y-143664619D02*
X202364473Y-142664619D01*
X203745425Y-143569380D02*
X203697806Y-143617000D01*
X203697806Y-143617000D02*
X203554949Y-143664619D01*
X203554949Y-143664619D02*
X203459711Y-143664619D01*
X203459711Y-143664619D02*
X203316854Y-143617000D01*
X203316854Y-143617000D02*
X203221616Y-143521761D01*
X203221616Y-143521761D02*
X203173997Y-143426523D01*
X203173997Y-143426523D02*
X203126378Y-143236047D01*
X203126378Y-143236047D02*
X203126378Y-143093190D01*
X203126378Y-143093190D02*
X203173997Y-142902714D01*
X203173997Y-142902714D02*
X203221616Y-142807476D01*
X203221616Y-142807476D02*
X203316854Y-142712238D01*
X203316854Y-142712238D02*
X203459711Y-142664619D01*
X203459711Y-142664619D02*
X203554949Y-142664619D01*
X203554949Y-142664619D02*
X203697806Y-142712238D01*
X203697806Y-142712238D02*
X203745425Y-142759857D01*
X204459711Y-142664619D02*
X204459711Y-143378904D01*
X204459711Y-143378904D02*
X204412092Y-143521761D01*
X204412092Y-143521761D02*
X204316854Y-143617000D01*
X204316854Y-143617000D02*
X204173997Y-143664619D01*
X204173997Y-143664619D02*
X204078759Y-143664619D01*
X205412092Y-143664619D02*
X204935902Y-143664619D01*
X204935902Y-143664619D02*
X204935902Y-142664619D01*
X206316854Y-143569380D02*
X206269235Y-143617000D01*
X206269235Y-143617000D02*
X206126378Y-143664619D01*
X206126378Y-143664619D02*
X206031140Y-143664619D01*
X206031140Y-143664619D02*
X205888283Y-143617000D01*
X205888283Y-143617000D02*
X205793045Y-143521761D01*
X205793045Y-143521761D02*
X205745426Y-143426523D01*
X205745426Y-143426523D02*
X205697807Y-143236047D01*
X205697807Y-143236047D02*
X205697807Y-143093190D01*
X205697807Y-143093190D02*
X205745426Y-142902714D01*
X205745426Y-142902714D02*
X205793045Y-142807476D01*
X205793045Y-142807476D02*
X205888283Y-142712238D01*
X205888283Y-142712238D02*
X206031140Y-142664619D01*
X206031140Y-142664619D02*
X206126378Y-142664619D01*
X206126378Y-142664619D02*
X206269235Y-142712238D01*
X206269235Y-142712238D02*
X206316854Y-142759857D01*
X207031140Y-142664619D02*
X207031140Y-143378904D01*
X207031140Y-143378904D02*
X206983521Y-143521761D01*
X206983521Y-143521761D02*
X206888283Y-143617000D01*
X206888283Y-143617000D02*
X206745426Y-143664619D01*
X206745426Y-143664619D02*
X206650188Y-143664619D01*
X207983521Y-143664619D02*
X207507331Y-143664619D01*
X207507331Y-143664619D02*
X207507331Y-142664619D01*
X208888283Y-143569380D02*
X208840664Y-143617000D01*
X208840664Y-143617000D02*
X208697807Y-143664619D01*
X208697807Y-143664619D02*
X208602569Y-143664619D01*
X208602569Y-143664619D02*
X208459712Y-143617000D01*
X208459712Y-143617000D02*
X208364474Y-143521761D01*
X208364474Y-143521761D02*
X208316855Y-143426523D01*
X208316855Y-143426523D02*
X208269236Y-143236047D01*
X208269236Y-143236047D02*
X208269236Y-143093190D01*
X208269236Y-143093190D02*
X208316855Y-142902714D01*
X208316855Y-142902714D02*
X208364474Y-142807476D01*
X208364474Y-142807476D02*
X208459712Y-142712238D01*
X208459712Y-142712238D02*
X208602569Y-142664619D01*
X208602569Y-142664619D02*
X208697807Y-142664619D01*
X208697807Y-142664619D02*
X208840664Y-142712238D01*
X208840664Y-142712238D02*
X208888283Y-142759857D01*
X209602569Y-142664619D02*
X209602569Y-143378904D01*
X209602569Y-143378904D02*
X209554950Y-143521761D01*
X209554950Y-143521761D02*
X209459712Y-143617000D01*
X209459712Y-143617000D02*
X209316855Y-143664619D01*
X209316855Y-143664619D02*
X209221617Y-143664619D01*
X210554950Y-143664619D02*
X210078760Y-143664619D01*
X210078760Y-143664619D02*
X210078760Y-142664619D01*
X211459712Y-143569380D02*
X211412093Y-143617000D01*
X211412093Y-143617000D02*
X211269236Y-143664619D01*
X211269236Y-143664619D02*
X211173998Y-143664619D01*
X211173998Y-143664619D02*
X211031141Y-143617000D01*
X211031141Y-143617000D02*
X210935903Y-143521761D01*
X210935903Y-143521761D02*
X210888284Y-143426523D01*
X210888284Y-143426523D02*
X210840665Y-143236047D01*
X210840665Y-143236047D02*
X210840665Y-143093190D01*
X210840665Y-143093190D02*
X210888284Y-142902714D01*
X210888284Y-142902714D02*
X210935903Y-142807476D01*
X210935903Y-142807476D02*
X211031141Y-142712238D01*
X211031141Y-142712238D02*
X211173998Y-142664619D01*
X211173998Y-142664619D02*
X211269236Y-142664619D01*
X211269236Y-142664619D02*
X211412093Y-142712238D01*
X211412093Y-142712238D02*
X211459712Y-142759857D01*
D12*
X264828571Y-127332295D02*
X264828571Y-126532295D01*
X264828571Y-126532295D02*
X265133333Y-126532295D01*
X265133333Y-126532295D02*
X265209523Y-126570390D01*
X265209523Y-126570390D02*
X265247618Y-126608485D01*
X265247618Y-126608485D02*
X265285714Y-126684676D01*
X265285714Y-126684676D02*
X265285714Y-126798961D01*
X265285714Y-126798961D02*
X265247618Y-126875152D01*
X265247618Y-126875152D02*
X265209523Y-126913247D01*
X265209523Y-126913247D02*
X265133333Y-126951342D01*
X265133333Y-126951342D02*
X264828571Y-126951342D01*
X265780952Y-126532295D02*
X265857142Y-126532295D01*
X265857142Y-126532295D02*
X265933333Y-126570390D01*
X265933333Y-126570390D02*
X265971428Y-126608485D01*
X265971428Y-126608485D02*
X266009523Y-126684676D01*
X266009523Y-126684676D02*
X266047618Y-126837057D01*
X266047618Y-126837057D02*
X266047618Y-127027533D01*
X266047618Y-127027533D02*
X266009523Y-127179914D01*
X266009523Y-127179914D02*
X265971428Y-127256104D01*
X265971428Y-127256104D02*
X265933333Y-127294200D01*
X265933333Y-127294200D02*
X265857142Y-127332295D01*
X265857142Y-127332295D02*
X265780952Y-127332295D01*
X265780952Y-127332295D02*
X265704761Y-127294200D01*
X265704761Y-127294200D02*
X265666666Y-127256104D01*
X265666666Y-127256104D02*
X265628571Y-127179914D01*
X265628571Y-127179914D02*
X265590475Y-127027533D01*
X265590475Y-127027533D02*
X265590475Y-126837057D01*
X265590475Y-126837057D02*
X265628571Y-126684676D01*
X265628571Y-126684676D02*
X265666666Y-126608485D01*
X265666666Y-126608485D02*
X265704761Y-126570390D01*
X265704761Y-126570390D02*
X265780952Y-126532295D01*
X266428571Y-127332295D02*
X266580952Y-127332295D01*
X266580952Y-127332295D02*
X266657142Y-127294200D01*
X266657142Y-127294200D02*
X266695238Y-127256104D01*
X266695238Y-127256104D02*
X266771428Y-127141819D01*
X266771428Y-127141819D02*
X266809523Y-126989438D01*
X266809523Y-126989438D02*
X266809523Y-126684676D01*
X266809523Y-126684676D02*
X266771428Y-126608485D01*
X266771428Y-126608485D02*
X266733333Y-126570390D01*
X266733333Y-126570390D02*
X266657142Y-126532295D01*
X266657142Y-126532295D02*
X266504761Y-126532295D01*
X266504761Y-126532295D02*
X266428571Y-126570390D01*
X266428571Y-126570390D02*
X266390476Y-126608485D01*
X266390476Y-126608485D02*
X266352380Y-126684676D01*
X266352380Y-126684676D02*
X266352380Y-126875152D01*
X266352380Y-126875152D02*
X266390476Y-126951342D01*
X266390476Y-126951342D02*
X266428571Y-126989438D01*
X266428571Y-126989438D02*
X266504761Y-127027533D01*
X266504761Y-127027533D02*
X266657142Y-127027533D01*
X266657142Y-127027533D02*
X266733333Y-126989438D01*
X266733333Y-126989438D02*
X266771428Y-126951342D01*
X266771428Y-126951342D02*
X266809523Y-126875152D01*
X255228571Y-119712295D02*
X255228571Y-118912295D01*
X255228571Y-118912295D02*
X255533333Y-118912295D01*
X255533333Y-118912295D02*
X255609523Y-118950390D01*
X255609523Y-118950390D02*
X255647618Y-118988485D01*
X255647618Y-118988485D02*
X255685714Y-119064676D01*
X255685714Y-119064676D02*
X255685714Y-119178961D01*
X255685714Y-119178961D02*
X255647618Y-119255152D01*
X255647618Y-119255152D02*
X255609523Y-119293247D01*
X255609523Y-119293247D02*
X255533333Y-119331342D01*
X255533333Y-119331342D02*
X255228571Y-119331342D01*
X256447618Y-119712295D02*
X255990475Y-119712295D01*
X256219047Y-119712295D02*
X256219047Y-118912295D01*
X256219047Y-118912295D02*
X256142856Y-119026580D01*
X256142856Y-119026580D02*
X256066666Y-119102771D01*
X256066666Y-119102771D02*
X255990475Y-119140866D01*
X257171428Y-118912295D02*
X256790476Y-118912295D01*
X256790476Y-118912295D02*
X256752380Y-119293247D01*
X256752380Y-119293247D02*
X256790476Y-119255152D01*
X256790476Y-119255152D02*
X256866666Y-119217057D01*
X256866666Y-119217057D02*
X257057142Y-119217057D01*
X257057142Y-119217057D02*
X257133333Y-119255152D01*
X257133333Y-119255152D02*
X257171428Y-119293247D01*
X257171428Y-119293247D02*
X257209523Y-119369438D01*
X257209523Y-119369438D02*
X257209523Y-119559914D01*
X257209523Y-119559914D02*
X257171428Y-119636104D01*
X257171428Y-119636104D02*
X257133333Y-119674200D01*
X257133333Y-119674200D02*
X257057142Y-119712295D01*
X257057142Y-119712295D02*
X256866666Y-119712295D01*
X256866666Y-119712295D02*
X256790476Y-119674200D01*
X256790476Y-119674200D02*
X256752380Y-119636104D01*
X264828571Y-124792295D02*
X264828571Y-123992295D01*
X264828571Y-123992295D02*
X265133333Y-123992295D01*
X265133333Y-123992295D02*
X265209523Y-124030390D01*
X265209523Y-124030390D02*
X265247618Y-124068485D01*
X265247618Y-124068485D02*
X265285714Y-124144676D01*
X265285714Y-124144676D02*
X265285714Y-124258961D01*
X265285714Y-124258961D02*
X265247618Y-124335152D01*
X265247618Y-124335152D02*
X265209523Y-124373247D01*
X265209523Y-124373247D02*
X265133333Y-124411342D01*
X265133333Y-124411342D02*
X264828571Y-124411342D01*
X265780952Y-123992295D02*
X265857142Y-123992295D01*
X265857142Y-123992295D02*
X265933333Y-124030390D01*
X265933333Y-124030390D02*
X265971428Y-124068485D01*
X265971428Y-124068485D02*
X266009523Y-124144676D01*
X266009523Y-124144676D02*
X266047618Y-124297057D01*
X266047618Y-124297057D02*
X266047618Y-124487533D01*
X266047618Y-124487533D02*
X266009523Y-124639914D01*
X266009523Y-124639914D02*
X265971428Y-124716104D01*
X265971428Y-124716104D02*
X265933333Y-124754200D01*
X265933333Y-124754200D02*
X265857142Y-124792295D01*
X265857142Y-124792295D02*
X265780952Y-124792295D01*
X265780952Y-124792295D02*
X265704761Y-124754200D01*
X265704761Y-124754200D02*
X265666666Y-124716104D01*
X265666666Y-124716104D02*
X265628571Y-124639914D01*
X265628571Y-124639914D02*
X265590475Y-124487533D01*
X265590475Y-124487533D02*
X265590475Y-124297057D01*
X265590475Y-124297057D02*
X265628571Y-124144676D01*
X265628571Y-124144676D02*
X265666666Y-124068485D01*
X265666666Y-124068485D02*
X265704761Y-124030390D01*
X265704761Y-124030390D02*
X265780952Y-123992295D01*
X266504761Y-124335152D02*
X266428571Y-124297057D01*
X266428571Y-124297057D02*
X266390476Y-124258961D01*
X266390476Y-124258961D02*
X266352380Y-124182771D01*
X266352380Y-124182771D02*
X266352380Y-124144676D01*
X266352380Y-124144676D02*
X266390476Y-124068485D01*
X266390476Y-124068485D02*
X266428571Y-124030390D01*
X266428571Y-124030390D02*
X266504761Y-123992295D01*
X266504761Y-123992295D02*
X266657142Y-123992295D01*
X266657142Y-123992295D02*
X266733333Y-124030390D01*
X266733333Y-124030390D02*
X266771428Y-124068485D01*
X266771428Y-124068485D02*
X266809523Y-124144676D01*
X266809523Y-124144676D02*
X266809523Y-124182771D01*
X266809523Y-124182771D02*
X266771428Y-124258961D01*
X266771428Y-124258961D02*
X266733333Y-124297057D01*
X266733333Y-124297057D02*
X266657142Y-124335152D01*
X266657142Y-124335152D02*
X266504761Y-124335152D01*
X266504761Y-124335152D02*
X266428571Y-124373247D01*
X266428571Y-124373247D02*
X266390476Y-124411342D01*
X266390476Y-124411342D02*
X266352380Y-124487533D01*
X266352380Y-124487533D02*
X266352380Y-124639914D01*
X266352380Y-124639914D02*
X266390476Y-124716104D01*
X266390476Y-124716104D02*
X266428571Y-124754200D01*
X266428571Y-124754200D02*
X266504761Y-124792295D01*
X266504761Y-124792295D02*
X266657142Y-124792295D01*
X266657142Y-124792295D02*
X266733333Y-124754200D01*
X266733333Y-124754200D02*
X266771428Y-124716104D01*
X266771428Y-124716104D02*
X266809523Y-124639914D01*
X266809523Y-124639914D02*
X266809523Y-124487533D01*
X266809523Y-124487533D02*
X266771428Y-124411342D01*
X266771428Y-124411342D02*
X266733333Y-124373247D01*
X266733333Y-124373247D02*
X266657142Y-124335152D01*
X255228571Y-114632295D02*
X255228571Y-113832295D01*
X255228571Y-113832295D02*
X255533333Y-113832295D01*
X255533333Y-113832295D02*
X255609523Y-113870390D01*
X255609523Y-113870390D02*
X255647618Y-113908485D01*
X255647618Y-113908485D02*
X255685714Y-113984676D01*
X255685714Y-113984676D02*
X255685714Y-114098961D01*
X255685714Y-114098961D02*
X255647618Y-114175152D01*
X255647618Y-114175152D02*
X255609523Y-114213247D01*
X255609523Y-114213247D02*
X255533333Y-114251342D01*
X255533333Y-114251342D02*
X255228571Y-114251342D01*
X256447618Y-114632295D02*
X255990475Y-114632295D01*
X256219047Y-114632295D02*
X256219047Y-113832295D01*
X256219047Y-113832295D02*
X256142856Y-113946580D01*
X256142856Y-113946580D02*
X256066666Y-114022771D01*
X256066666Y-114022771D02*
X255990475Y-114060866D01*
X256828571Y-114632295D02*
X256980952Y-114632295D01*
X256980952Y-114632295D02*
X257057142Y-114594200D01*
X257057142Y-114594200D02*
X257095238Y-114556104D01*
X257095238Y-114556104D02*
X257171428Y-114441819D01*
X257171428Y-114441819D02*
X257209523Y-114289438D01*
X257209523Y-114289438D02*
X257209523Y-113984676D01*
X257209523Y-113984676D02*
X257171428Y-113908485D01*
X257171428Y-113908485D02*
X257133333Y-113870390D01*
X257133333Y-113870390D02*
X257057142Y-113832295D01*
X257057142Y-113832295D02*
X256904761Y-113832295D01*
X256904761Y-113832295D02*
X256828571Y-113870390D01*
X256828571Y-113870390D02*
X256790476Y-113908485D01*
X256790476Y-113908485D02*
X256752380Y-113984676D01*
X256752380Y-113984676D02*
X256752380Y-114175152D01*
X256752380Y-114175152D02*
X256790476Y-114251342D01*
X256790476Y-114251342D02*
X256828571Y-114289438D01*
X256828571Y-114289438D02*
X256904761Y-114327533D01*
X256904761Y-114327533D02*
X257057142Y-114327533D01*
X257057142Y-114327533D02*
X257133333Y-114289438D01*
X257133333Y-114289438D02*
X257171428Y-114251342D01*
X257171428Y-114251342D02*
X257209523Y-114175152D01*
X255228571Y-112092295D02*
X255228571Y-111292295D01*
X255228571Y-111292295D02*
X255533333Y-111292295D01*
X255533333Y-111292295D02*
X255609523Y-111330390D01*
X255609523Y-111330390D02*
X255647618Y-111368485D01*
X255647618Y-111368485D02*
X255685714Y-111444676D01*
X255685714Y-111444676D02*
X255685714Y-111558961D01*
X255685714Y-111558961D02*
X255647618Y-111635152D01*
X255647618Y-111635152D02*
X255609523Y-111673247D01*
X255609523Y-111673247D02*
X255533333Y-111711342D01*
X255533333Y-111711342D02*
X255228571Y-111711342D01*
X255990475Y-111368485D02*
X256028571Y-111330390D01*
X256028571Y-111330390D02*
X256104761Y-111292295D01*
X256104761Y-111292295D02*
X256295237Y-111292295D01*
X256295237Y-111292295D02*
X256371428Y-111330390D01*
X256371428Y-111330390D02*
X256409523Y-111368485D01*
X256409523Y-111368485D02*
X256447618Y-111444676D01*
X256447618Y-111444676D02*
X256447618Y-111520866D01*
X256447618Y-111520866D02*
X256409523Y-111635152D01*
X256409523Y-111635152D02*
X255952380Y-112092295D01*
X255952380Y-112092295D02*
X256447618Y-112092295D01*
X256942857Y-111292295D02*
X257019047Y-111292295D01*
X257019047Y-111292295D02*
X257095238Y-111330390D01*
X257095238Y-111330390D02*
X257133333Y-111368485D01*
X257133333Y-111368485D02*
X257171428Y-111444676D01*
X257171428Y-111444676D02*
X257209523Y-111597057D01*
X257209523Y-111597057D02*
X257209523Y-111787533D01*
X257209523Y-111787533D02*
X257171428Y-111939914D01*
X257171428Y-111939914D02*
X257133333Y-112016104D01*
X257133333Y-112016104D02*
X257095238Y-112054200D01*
X257095238Y-112054200D02*
X257019047Y-112092295D01*
X257019047Y-112092295D02*
X256942857Y-112092295D01*
X256942857Y-112092295D02*
X256866666Y-112054200D01*
X256866666Y-112054200D02*
X256828571Y-112016104D01*
X256828571Y-112016104D02*
X256790476Y-111939914D01*
X256790476Y-111939914D02*
X256752380Y-111787533D01*
X256752380Y-111787533D02*
X256752380Y-111597057D01*
X256752380Y-111597057D02*
X256790476Y-111444676D01*
X256790476Y-111444676D02*
X256828571Y-111368485D01*
X256828571Y-111368485D02*
X256866666Y-111330390D01*
X256866666Y-111330390D02*
X256942857Y-111292295D01*
X265190476Y-103710390D02*
X265114286Y-103672295D01*
X265114286Y-103672295D02*
X265000000Y-103672295D01*
X265000000Y-103672295D02*
X264885714Y-103710390D01*
X264885714Y-103710390D02*
X264809524Y-103786580D01*
X264809524Y-103786580D02*
X264771429Y-103862771D01*
X264771429Y-103862771D02*
X264733333Y-104015152D01*
X264733333Y-104015152D02*
X264733333Y-104129438D01*
X264733333Y-104129438D02*
X264771429Y-104281819D01*
X264771429Y-104281819D02*
X264809524Y-104358009D01*
X264809524Y-104358009D02*
X264885714Y-104434200D01*
X264885714Y-104434200D02*
X265000000Y-104472295D01*
X265000000Y-104472295D02*
X265076191Y-104472295D01*
X265076191Y-104472295D02*
X265190476Y-104434200D01*
X265190476Y-104434200D02*
X265228572Y-104396104D01*
X265228572Y-104396104D02*
X265228572Y-104129438D01*
X265228572Y-104129438D02*
X265076191Y-104129438D01*
X265571429Y-104472295D02*
X265571429Y-103672295D01*
X265571429Y-103672295D02*
X266028572Y-104472295D01*
X266028572Y-104472295D02*
X266028572Y-103672295D01*
X266409524Y-104472295D02*
X266409524Y-103672295D01*
X266409524Y-103672295D02*
X266600000Y-103672295D01*
X266600000Y-103672295D02*
X266714286Y-103710390D01*
X266714286Y-103710390D02*
X266790476Y-103786580D01*
X266790476Y-103786580D02*
X266828571Y-103862771D01*
X266828571Y-103862771D02*
X266866667Y-104015152D01*
X266866667Y-104015152D02*
X266866667Y-104129438D01*
X266866667Y-104129438D02*
X266828571Y-104281819D01*
X266828571Y-104281819D02*
X266790476Y-104358009D01*
X266790476Y-104358009D02*
X266714286Y-104434200D01*
X266714286Y-104434200D02*
X266600000Y-104472295D01*
X266600000Y-104472295D02*
X266409524Y-104472295D01*
X255228571Y-122252295D02*
X255228571Y-121452295D01*
X255228571Y-121452295D02*
X255533333Y-121452295D01*
X255533333Y-121452295D02*
X255609523Y-121490390D01*
X255609523Y-121490390D02*
X255647618Y-121528485D01*
X255647618Y-121528485D02*
X255685714Y-121604676D01*
X255685714Y-121604676D02*
X255685714Y-121718961D01*
X255685714Y-121718961D02*
X255647618Y-121795152D01*
X255647618Y-121795152D02*
X255609523Y-121833247D01*
X255609523Y-121833247D02*
X255533333Y-121871342D01*
X255533333Y-121871342D02*
X255228571Y-121871342D01*
X256447618Y-122252295D02*
X255990475Y-122252295D01*
X256219047Y-122252295D02*
X256219047Y-121452295D01*
X256219047Y-121452295D02*
X256142856Y-121566580D01*
X256142856Y-121566580D02*
X256066666Y-121642771D01*
X256066666Y-121642771D02*
X255990475Y-121680866D01*
X257133333Y-121718961D02*
X257133333Y-122252295D01*
X256942857Y-121414200D02*
X256752380Y-121985628D01*
X256752380Y-121985628D02*
X257247619Y-121985628D01*
X264828571Y-122252295D02*
X264828571Y-121452295D01*
X264828571Y-121452295D02*
X265133333Y-121452295D01*
X265133333Y-121452295D02*
X265209523Y-121490390D01*
X265209523Y-121490390D02*
X265247618Y-121528485D01*
X265247618Y-121528485D02*
X265285714Y-121604676D01*
X265285714Y-121604676D02*
X265285714Y-121718961D01*
X265285714Y-121718961D02*
X265247618Y-121795152D01*
X265247618Y-121795152D02*
X265209523Y-121833247D01*
X265209523Y-121833247D02*
X265133333Y-121871342D01*
X265133333Y-121871342D02*
X264828571Y-121871342D01*
X265780952Y-121452295D02*
X265857142Y-121452295D01*
X265857142Y-121452295D02*
X265933333Y-121490390D01*
X265933333Y-121490390D02*
X265971428Y-121528485D01*
X265971428Y-121528485D02*
X266009523Y-121604676D01*
X266009523Y-121604676D02*
X266047618Y-121757057D01*
X266047618Y-121757057D02*
X266047618Y-121947533D01*
X266047618Y-121947533D02*
X266009523Y-122099914D01*
X266009523Y-122099914D02*
X265971428Y-122176104D01*
X265971428Y-122176104D02*
X265933333Y-122214200D01*
X265933333Y-122214200D02*
X265857142Y-122252295D01*
X265857142Y-122252295D02*
X265780952Y-122252295D01*
X265780952Y-122252295D02*
X265704761Y-122214200D01*
X265704761Y-122214200D02*
X265666666Y-122176104D01*
X265666666Y-122176104D02*
X265628571Y-122099914D01*
X265628571Y-122099914D02*
X265590475Y-121947533D01*
X265590475Y-121947533D02*
X265590475Y-121757057D01*
X265590475Y-121757057D02*
X265628571Y-121604676D01*
X265628571Y-121604676D02*
X265666666Y-121528485D01*
X265666666Y-121528485D02*
X265704761Y-121490390D01*
X265704761Y-121490390D02*
X265780952Y-121452295D01*
X266314285Y-121452295D02*
X266847619Y-121452295D01*
X266847619Y-121452295D02*
X266504761Y-122252295D01*
X255228571Y-109552295D02*
X255228571Y-108752295D01*
X255228571Y-108752295D02*
X255533333Y-108752295D01*
X255533333Y-108752295D02*
X255609523Y-108790390D01*
X255609523Y-108790390D02*
X255647618Y-108828485D01*
X255647618Y-108828485D02*
X255685714Y-108904676D01*
X255685714Y-108904676D02*
X255685714Y-109018961D01*
X255685714Y-109018961D02*
X255647618Y-109095152D01*
X255647618Y-109095152D02*
X255609523Y-109133247D01*
X255609523Y-109133247D02*
X255533333Y-109171342D01*
X255533333Y-109171342D02*
X255228571Y-109171342D01*
X255990475Y-108828485D02*
X256028571Y-108790390D01*
X256028571Y-108790390D02*
X256104761Y-108752295D01*
X256104761Y-108752295D02*
X256295237Y-108752295D01*
X256295237Y-108752295D02*
X256371428Y-108790390D01*
X256371428Y-108790390D02*
X256409523Y-108828485D01*
X256409523Y-108828485D02*
X256447618Y-108904676D01*
X256447618Y-108904676D02*
X256447618Y-108980866D01*
X256447618Y-108980866D02*
X256409523Y-109095152D01*
X256409523Y-109095152D02*
X255952380Y-109552295D01*
X255952380Y-109552295D02*
X256447618Y-109552295D01*
X257209523Y-109552295D02*
X256752380Y-109552295D01*
X256980952Y-109552295D02*
X256980952Y-108752295D01*
X256980952Y-108752295D02*
X256904761Y-108866580D01*
X256904761Y-108866580D02*
X256828571Y-108942771D01*
X256828571Y-108942771D02*
X256752380Y-108980866D01*
X264828571Y-99392295D02*
X264828571Y-98592295D01*
X264828571Y-98592295D02*
X265133333Y-98592295D01*
X265133333Y-98592295D02*
X265209523Y-98630390D01*
X265209523Y-98630390D02*
X265247618Y-98668485D01*
X265247618Y-98668485D02*
X265285714Y-98744676D01*
X265285714Y-98744676D02*
X265285714Y-98858961D01*
X265285714Y-98858961D02*
X265247618Y-98935152D01*
X265247618Y-98935152D02*
X265209523Y-98973247D01*
X265209523Y-98973247D02*
X265133333Y-99011342D01*
X265133333Y-99011342D02*
X264828571Y-99011342D01*
X265780952Y-98592295D02*
X265857142Y-98592295D01*
X265857142Y-98592295D02*
X265933333Y-98630390D01*
X265933333Y-98630390D02*
X265971428Y-98668485D01*
X265971428Y-98668485D02*
X266009523Y-98744676D01*
X266009523Y-98744676D02*
X266047618Y-98897057D01*
X266047618Y-98897057D02*
X266047618Y-99087533D01*
X266047618Y-99087533D02*
X266009523Y-99239914D01*
X266009523Y-99239914D02*
X265971428Y-99316104D01*
X265971428Y-99316104D02*
X265933333Y-99354200D01*
X265933333Y-99354200D02*
X265857142Y-99392295D01*
X265857142Y-99392295D02*
X265780952Y-99392295D01*
X265780952Y-99392295D02*
X265704761Y-99354200D01*
X265704761Y-99354200D02*
X265666666Y-99316104D01*
X265666666Y-99316104D02*
X265628571Y-99239914D01*
X265628571Y-99239914D02*
X265590475Y-99087533D01*
X265590475Y-99087533D02*
X265590475Y-98897057D01*
X265590475Y-98897057D02*
X265628571Y-98744676D01*
X265628571Y-98744676D02*
X265666666Y-98668485D01*
X265666666Y-98668485D02*
X265704761Y-98630390D01*
X265704761Y-98630390D02*
X265780952Y-98592295D01*
X266809523Y-99392295D02*
X266352380Y-99392295D01*
X266580952Y-99392295D02*
X266580952Y-98592295D01*
X266580952Y-98592295D02*
X266504761Y-98706580D01*
X266504761Y-98706580D02*
X266428571Y-98782771D01*
X266428571Y-98782771D02*
X266352380Y-98820866D01*
X264828571Y-101932295D02*
X264828571Y-101132295D01*
X264828571Y-101132295D02*
X265133333Y-101132295D01*
X265133333Y-101132295D02*
X265209523Y-101170390D01*
X265209523Y-101170390D02*
X265247618Y-101208485D01*
X265247618Y-101208485D02*
X265285714Y-101284676D01*
X265285714Y-101284676D02*
X265285714Y-101398961D01*
X265285714Y-101398961D02*
X265247618Y-101475152D01*
X265247618Y-101475152D02*
X265209523Y-101513247D01*
X265209523Y-101513247D02*
X265133333Y-101551342D01*
X265133333Y-101551342D02*
X264828571Y-101551342D01*
X265780952Y-101132295D02*
X265857142Y-101132295D01*
X265857142Y-101132295D02*
X265933333Y-101170390D01*
X265933333Y-101170390D02*
X265971428Y-101208485D01*
X265971428Y-101208485D02*
X266009523Y-101284676D01*
X266009523Y-101284676D02*
X266047618Y-101437057D01*
X266047618Y-101437057D02*
X266047618Y-101627533D01*
X266047618Y-101627533D02*
X266009523Y-101779914D01*
X266009523Y-101779914D02*
X265971428Y-101856104D01*
X265971428Y-101856104D02*
X265933333Y-101894200D01*
X265933333Y-101894200D02*
X265857142Y-101932295D01*
X265857142Y-101932295D02*
X265780952Y-101932295D01*
X265780952Y-101932295D02*
X265704761Y-101894200D01*
X265704761Y-101894200D02*
X265666666Y-101856104D01*
X265666666Y-101856104D02*
X265628571Y-101779914D01*
X265628571Y-101779914D02*
X265590475Y-101627533D01*
X265590475Y-101627533D02*
X265590475Y-101437057D01*
X265590475Y-101437057D02*
X265628571Y-101284676D01*
X265628571Y-101284676D02*
X265666666Y-101208485D01*
X265666666Y-101208485D02*
X265704761Y-101170390D01*
X265704761Y-101170390D02*
X265780952Y-101132295D01*
X266542857Y-101132295D02*
X266619047Y-101132295D01*
X266619047Y-101132295D02*
X266695238Y-101170390D01*
X266695238Y-101170390D02*
X266733333Y-101208485D01*
X266733333Y-101208485D02*
X266771428Y-101284676D01*
X266771428Y-101284676D02*
X266809523Y-101437057D01*
X266809523Y-101437057D02*
X266809523Y-101627533D01*
X266809523Y-101627533D02*
X266771428Y-101779914D01*
X266771428Y-101779914D02*
X266733333Y-101856104D01*
X266733333Y-101856104D02*
X266695238Y-101894200D01*
X266695238Y-101894200D02*
X266619047Y-101932295D01*
X266619047Y-101932295D02*
X266542857Y-101932295D01*
X266542857Y-101932295D02*
X266466666Y-101894200D01*
X266466666Y-101894200D02*
X266428571Y-101856104D01*
X266428571Y-101856104D02*
X266390476Y-101779914D01*
X266390476Y-101779914D02*
X266352380Y-101627533D01*
X266352380Y-101627533D02*
X266352380Y-101437057D01*
X266352380Y-101437057D02*
X266390476Y-101284676D01*
X266390476Y-101284676D02*
X266428571Y-101208485D01*
X266428571Y-101208485D02*
X266466666Y-101170390D01*
X266466666Y-101170390D02*
X266542857Y-101132295D01*
X255228571Y-127332295D02*
X255228571Y-126532295D01*
X255228571Y-126532295D02*
X255533333Y-126532295D01*
X255533333Y-126532295D02*
X255609523Y-126570390D01*
X255609523Y-126570390D02*
X255647618Y-126608485D01*
X255647618Y-126608485D02*
X255685714Y-126684676D01*
X255685714Y-126684676D02*
X255685714Y-126798961D01*
X255685714Y-126798961D02*
X255647618Y-126875152D01*
X255647618Y-126875152D02*
X255609523Y-126913247D01*
X255609523Y-126913247D02*
X255533333Y-126951342D01*
X255533333Y-126951342D02*
X255228571Y-126951342D01*
X256447618Y-127332295D02*
X255990475Y-127332295D01*
X256219047Y-127332295D02*
X256219047Y-126532295D01*
X256219047Y-126532295D02*
X256142856Y-126646580D01*
X256142856Y-126646580D02*
X256066666Y-126722771D01*
X256066666Y-126722771D02*
X255990475Y-126760866D01*
X256942857Y-126532295D02*
X257019047Y-126532295D01*
X257019047Y-126532295D02*
X257095238Y-126570390D01*
X257095238Y-126570390D02*
X257133333Y-126608485D01*
X257133333Y-126608485D02*
X257171428Y-126684676D01*
X257171428Y-126684676D02*
X257209523Y-126837057D01*
X257209523Y-126837057D02*
X257209523Y-127027533D01*
X257209523Y-127027533D02*
X257171428Y-127179914D01*
X257171428Y-127179914D02*
X257133333Y-127256104D01*
X257133333Y-127256104D02*
X257095238Y-127294200D01*
X257095238Y-127294200D02*
X257019047Y-127332295D01*
X257019047Y-127332295D02*
X256942857Y-127332295D01*
X256942857Y-127332295D02*
X256866666Y-127294200D01*
X256866666Y-127294200D02*
X256828571Y-127256104D01*
X256828571Y-127256104D02*
X256790476Y-127179914D01*
X256790476Y-127179914D02*
X256752380Y-127027533D01*
X256752380Y-127027533D02*
X256752380Y-126837057D01*
X256752380Y-126837057D02*
X256790476Y-126684676D01*
X256790476Y-126684676D02*
X256828571Y-126608485D01*
X256828571Y-126608485D02*
X256866666Y-126570390D01*
X256866666Y-126570390D02*
X256942857Y-126532295D01*
X264828571Y-117172295D02*
X264828571Y-116372295D01*
X264828571Y-116372295D02*
X265133333Y-116372295D01*
X265133333Y-116372295D02*
X265209523Y-116410390D01*
X265209523Y-116410390D02*
X265247618Y-116448485D01*
X265247618Y-116448485D02*
X265285714Y-116524676D01*
X265285714Y-116524676D02*
X265285714Y-116638961D01*
X265285714Y-116638961D02*
X265247618Y-116715152D01*
X265247618Y-116715152D02*
X265209523Y-116753247D01*
X265209523Y-116753247D02*
X265133333Y-116791342D01*
X265133333Y-116791342D02*
X264828571Y-116791342D01*
X265780952Y-116372295D02*
X265857142Y-116372295D01*
X265857142Y-116372295D02*
X265933333Y-116410390D01*
X265933333Y-116410390D02*
X265971428Y-116448485D01*
X265971428Y-116448485D02*
X266009523Y-116524676D01*
X266009523Y-116524676D02*
X266047618Y-116677057D01*
X266047618Y-116677057D02*
X266047618Y-116867533D01*
X266047618Y-116867533D02*
X266009523Y-117019914D01*
X266009523Y-117019914D02*
X265971428Y-117096104D01*
X265971428Y-117096104D02*
X265933333Y-117134200D01*
X265933333Y-117134200D02*
X265857142Y-117172295D01*
X265857142Y-117172295D02*
X265780952Y-117172295D01*
X265780952Y-117172295D02*
X265704761Y-117134200D01*
X265704761Y-117134200D02*
X265666666Y-117096104D01*
X265666666Y-117096104D02*
X265628571Y-117019914D01*
X265628571Y-117019914D02*
X265590475Y-116867533D01*
X265590475Y-116867533D02*
X265590475Y-116677057D01*
X265590475Y-116677057D02*
X265628571Y-116524676D01*
X265628571Y-116524676D02*
X265666666Y-116448485D01*
X265666666Y-116448485D02*
X265704761Y-116410390D01*
X265704761Y-116410390D02*
X265780952Y-116372295D01*
X266771428Y-116372295D02*
X266390476Y-116372295D01*
X266390476Y-116372295D02*
X266352380Y-116753247D01*
X266352380Y-116753247D02*
X266390476Y-116715152D01*
X266390476Y-116715152D02*
X266466666Y-116677057D01*
X266466666Y-116677057D02*
X266657142Y-116677057D01*
X266657142Y-116677057D02*
X266733333Y-116715152D01*
X266733333Y-116715152D02*
X266771428Y-116753247D01*
X266771428Y-116753247D02*
X266809523Y-116829438D01*
X266809523Y-116829438D02*
X266809523Y-117019914D01*
X266809523Y-117019914D02*
X266771428Y-117096104D01*
X266771428Y-117096104D02*
X266733333Y-117134200D01*
X266733333Y-117134200D02*
X266657142Y-117172295D01*
X266657142Y-117172295D02*
X266466666Y-117172295D01*
X266466666Y-117172295D02*
X266390476Y-117134200D01*
X266390476Y-117134200D02*
X266352380Y-117096104D01*
X264828571Y-119712295D02*
X264828571Y-118912295D01*
X264828571Y-118912295D02*
X265133333Y-118912295D01*
X265133333Y-118912295D02*
X265209523Y-118950390D01*
X265209523Y-118950390D02*
X265247618Y-118988485D01*
X265247618Y-118988485D02*
X265285714Y-119064676D01*
X265285714Y-119064676D02*
X265285714Y-119178961D01*
X265285714Y-119178961D02*
X265247618Y-119255152D01*
X265247618Y-119255152D02*
X265209523Y-119293247D01*
X265209523Y-119293247D02*
X265133333Y-119331342D01*
X265133333Y-119331342D02*
X264828571Y-119331342D01*
X265780952Y-118912295D02*
X265857142Y-118912295D01*
X265857142Y-118912295D02*
X265933333Y-118950390D01*
X265933333Y-118950390D02*
X265971428Y-118988485D01*
X265971428Y-118988485D02*
X266009523Y-119064676D01*
X266009523Y-119064676D02*
X266047618Y-119217057D01*
X266047618Y-119217057D02*
X266047618Y-119407533D01*
X266047618Y-119407533D02*
X266009523Y-119559914D01*
X266009523Y-119559914D02*
X265971428Y-119636104D01*
X265971428Y-119636104D02*
X265933333Y-119674200D01*
X265933333Y-119674200D02*
X265857142Y-119712295D01*
X265857142Y-119712295D02*
X265780952Y-119712295D01*
X265780952Y-119712295D02*
X265704761Y-119674200D01*
X265704761Y-119674200D02*
X265666666Y-119636104D01*
X265666666Y-119636104D02*
X265628571Y-119559914D01*
X265628571Y-119559914D02*
X265590475Y-119407533D01*
X265590475Y-119407533D02*
X265590475Y-119217057D01*
X265590475Y-119217057D02*
X265628571Y-119064676D01*
X265628571Y-119064676D02*
X265666666Y-118988485D01*
X265666666Y-118988485D02*
X265704761Y-118950390D01*
X265704761Y-118950390D02*
X265780952Y-118912295D01*
X266733333Y-118912295D02*
X266580952Y-118912295D01*
X266580952Y-118912295D02*
X266504761Y-118950390D01*
X266504761Y-118950390D02*
X266466666Y-118988485D01*
X266466666Y-118988485D02*
X266390476Y-119102771D01*
X266390476Y-119102771D02*
X266352380Y-119255152D01*
X266352380Y-119255152D02*
X266352380Y-119559914D01*
X266352380Y-119559914D02*
X266390476Y-119636104D01*
X266390476Y-119636104D02*
X266428571Y-119674200D01*
X266428571Y-119674200D02*
X266504761Y-119712295D01*
X266504761Y-119712295D02*
X266657142Y-119712295D01*
X266657142Y-119712295D02*
X266733333Y-119674200D01*
X266733333Y-119674200D02*
X266771428Y-119636104D01*
X266771428Y-119636104D02*
X266809523Y-119559914D01*
X266809523Y-119559914D02*
X266809523Y-119369438D01*
X266809523Y-119369438D02*
X266771428Y-119293247D01*
X266771428Y-119293247D02*
X266733333Y-119255152D01*
X266733333Y-119255152D02*
X266657142Y-119217057D01*
X266657142Y-119217057D02*
X266504761Y-119217057D01*
X266504761Y-119217057D02*
X266428571Y-119255152D01*
X266428571Y-119255152D02*
X266390476Y-119293247D01*
X266390476Y-119293247D02*
X266352380Y-119369438D01*
X264828571Y-109552295D02*
X264828571Y-108752295D01*
X264828571Y-108752295D02*
X265133333Y-108752295D01*
X265133333Y-108752295D02*
X265209523Y-108790390D01*
X265209523Y-108790390D02*
X265247618Y-108828485D01*
X265247618Y-108828485D02*
X265285714Y-108904676D01*
X265285714Y-108904676D02*
X265285714Y-109018961D01*
X265285714Y-109018961D02*
X265247618Y-109095152D01*
X265247618Y-109095152D02*
X265209523Y-109133247D01*
X265209523Y-109133247D02*
X265133333Y-109171342D01*
X265133333Y-109171342D02*
X264828571Y-109171342D01*
X265780952Y-108752295D02*
X265857142Y-108752295D01*
X265857142Y-108752295D02*
X265933333Y-108790390D01*
X265933333Y-108790390D02*
X265971428Y-108828485D01*
X265971428Y-108828485D02*
X266009523Y-108904676D01*
X266009523Y-108904676D02*
X266047618Y-109057057D01*
X266047618Y-109057057D02*
X266047618Y-109247533D01*
X266047618Y-109247533D02*
X266009523Y-109399914D01*
X266009523Y-109399914D02*
X265971428Y-109476104D01*
X265971428Y-109476104D02*
X265933333Y-109514200D01*
X265933333Y-109514200D02*
X265857142Y-109552295D01*
X265857142Y-109552295D02*
X265780952Y-109552295D01*
X265780952Y-109552295D02*
X265704761Y-109514200D01*
X265704761Y-109514200D02*
X265666666Y-109476104D01*
X265666666Y-109476104D02*
X265628571Y-109399914D01*
X265628571Y-109399914D02*
X265590475Y-109247533D01*
X265590475Y-109247533D02*
X265590475Y-109057057D01*
X265590475Y-109057057D02*
X265628571Y-108904676D01*
X265628571Y-108904676D02*
X265666666Y-108828485D01*
X265666666Y-108828485D02*
X265704761Y-108790390D01*
X265704761Y-108790390D02*
X265780952Y-108752295D01*
X266352380Y-108828485D02*
X266390476Y-108790390D01*
X266390476Y-108790390D02*
X266466666Y-108752295D01*
X266466666Y-108752295D02*
X266657142Y-108752295D01*
X266657142Y-108752295D02*
X266733333Y-108790390D01*
X266733333Y-108790390D02*
X266771428Y-108828485D01*
X266771428Y-108828485D02*
X266809523Y-108904676D01*
X266809523Y-108904676D02*
X266809523Y-108980866D01*
X266809523Y-108980866D02*
X266771428Y-109095152D01*
X266771428Y-109095152D02*
X266314285Y-109552295D01*
X266314285Y-109552295D02*
X266809523Y-109552295D01*
X264828571Y-114632295D02*
X264828571Y-113832295D01*
X264828571Y-113832295D02*
X265133333Y-113832295D01*
X265133333Y-113832295D02*
X265209523Y-113870390D01*
X265209523Y-113870390D02*
X265247618Y-113908485D01*
X265247618Y-113908485D02*
X265285714Y-113984676D01*
X265285714Y-113984676D02*
X265285714Y-114098961D01*
X265285714Y-114098961D02*
X265247618Y-114175152D01*
X265247618Y-114175152D02*
X265209523Y-114213247D01*
X265209523Y-114213247D02*
X265133333Y-114251342D01*
X265133333Y-114251342D02*
X264828571Y-114251342D01*
X265780952Y-113832295D02*
X265857142Y-113832295D01*
X265857142Y-113832295D02*
X265933333Y-113870390D01*
X265933333Y-113870390D02*
X265971428Y-113908485D01*
X265971428Y-113908485D02*
X266009523Y-113984676D01*
X266009523Y-113984676D02*
X266047618Y-114137057D01*
X266047618Y-114137057D02*
X266047618Y-114327533D01*
X266047618Y-114327533D02*
X266009523Y-114479914D01*
X266009523Y-114479914D02*
X265971428Y-114556104D01*
X265971428Y-114556104D02*
X265933333Y-114594200D01*
X265933333Y-114594200D02*
X265857142Y-114632295D01*
X265857142Y-114632295D02*
X265780952Y-114632295D01*
X265780952Y-114632295D02*
X265704761Y-114594200D01*
X265704761Y-114594200D02*
X265666666Y-114556104D01*
X265666666Y-114556104D02*
X265628571Y-114479914D01*
X265628571Y-114479914D02*
X265590475Y-114327533D01*
X265590475Y-114327533D02*
X265590475Y-114137057D01*
X265590475Y-114137057D02*
X265628571Y-113984676D01*
X265628571Y-113984676D02*
X265666666Y-113908485D01*
X265666666Y-113908485D02*
X265704761Y-113870390D01*
X265704761Y-113870390D02*
X265780952Y-113832295D01*
X266733333Y-114098961D02*
X266733333Y-114632295D01*
X266542857Y-113794200D02*
X266352380Y-114365628D01*
X266352380Y-114365628D02*
X266847619Y-114365628D01*
X265190476Y-106250390D02*
X265114286Y-106212295D01*
X265114286Y-106212295D02*
X265000000Y-106212295D01*
X265000000Y-106212295D02*
X264885714Y-106250390D01*
X264885714Y-106250390D02*
X264809524Y-106326580D01*
X264809524Y-106326580D02*
X264771429Y-106402771D01*
X264771429Y-106402771D02*
X264733333Y-106555152D01*
X264733333Y-106555152D02*
X264733333Y-106669438D01*
X264733333Y-106669438D02*
X264771429Y-106821819D01*
X264771429Y-106821819D02*
X264809524Y-106898009D01*
X264809524Y-106898009D02*
X264885714Y-106974200D01*
X264885714Y-106974200D02*
X265000000Y-107012295D01*
X265000000Y-107012295D02*
X265076191Y-107012295D01*
X265076191Y-107012295D02*
X265190476Y-106974200D01*
X265190476Y-106974200D02*
X265228572Y-106936104D01*
X265228572Y-106936104D02*
X265228572Y-106669438D01*
X265228572Y-106669438D02*
X265076191Y-106669438D01*
X265571429Y-107012295D02*
X265571429Y-106212295D01*
X265571429Y-106212295D02*
X266028572Y-107012295D01*
X266028572Y-107012295D02*
X266028572Y-106212295D01*
X266409524Y-107012295D02*
X266409524Y-106212295D01*
X266409524Y-106212295D02*
X266600000Y-106212295D01*
X266600000Y-106212295D02*
X266714286Y-106250390D01*
X266714286Y-106250390D02*
X266790476Y-106326580D01*
X266790476Y-106326580D02*
X266828571Y-106402771D01*
X266828571Y-106402771D02*
X266866667Y-106555152D01*
X266866667Y-106555152D02*
X266866667Y-106669438D01*
X266866667Y-106669438D02*
X266828571Y-106821819D01*
X266828571Y-106821819D02*
X266790476Y-106898009D01*
X266790476Y-106898009D02*
X266714286Y-106974200D01*
X266714286Y-106974200D02*
X266600000Y-107012295D01*
X266600000Y-107012295D02*
X266409524Y-107012295D01*
X264828571Y-112092295D02*
X264828571Y-111292295D01*
X264828571Y-111292295D02*
X265133333Y-111292295D01*
X265133333Y-111292295D02*
X265209523Y-111330390D01*
X265209523Y-111330390D02*
X265247618Y-111368485D01*
X265247618Y-111368485D02*
X265285714Y-111444676D01*
X265285714Y-111444676D02*
X265285714Y-111558961D01*
X265285714Y-111558961D02*
X265247618Y-111635152D01*
X265247618Y-111635152D02*
X265209523Y-111673247D01*
X265209523Y-111673247D02*
X265133333Y-111711342D01*
X265133333Y-111711342D02*
X264828571Y-111711342D01*
X265780952Y-111292295D02*
X265857142Y-111292295D01*
X265857142Y-111292295D02*
X265933333Y-111330390D01*
X265933333Y-111330390D02*
X265971428Y-111368485D01*
X265971428Y-111368485D02*
X266009523Y-111444676D01*
X266009523Y-111444676D02*
X266047618Y-111597057D01*
X266047618Y-111597057D02*
X266047618Y-111787533D01*
X266047618Y-111787533D02*
X266009523Y-111939914D01*
X266009523Y-111939914D02*
X265971428Y-112016104D01*
X265971428Y-112016104D02*
X265933333Y-112054200D01*
X265933333Y-112054200D02*
X265857142Y-112092295D01*
X265857142Y-112092295D02*
X265780952Y-112092295D01*
X265780952Y-112092295D02*
X265704761Y-112054200D01*
X265704761Y-112054200D02*
X265666666Y-112016104D01*
X265666666Y-112016104D02*
X265628571Y-111939914D01*
X265628571Y-111939914D02*
X265590475Y-111787533D01*
X265590475Y-111787533D02*
X265590475Y-111597057D01*
X265590475Y-111597057D02*
X265628571Y-111444676D01*
X265628571Y-111444676D02*
X265666666Y-111368485D01*
X265666666Y-111368485D02*
X265704761Y-111330390D01*
X265704761Y-111330390D02*
X265780952Y-111292295D01*
X266314285Y-111292295D02*
X266809523Y-111292295D01*
X266809523Y-111292295D02*
X266542857Y-111597057D01*
X266542857Y-111597057D02*
X266657142Y-111597057D01*
X266657142Y-111597057D02*
X266733333Y-111635152D01*
X266733333Y-111635152D02*
X266771428Y-111673247D01*
X266771428Y-111673247D02*
X266809523Y-111749438D01*
X266809523Y-111749438D02*
X266809523Y-111939914D01*
X266809523Y-111939914D02*
X266771428Y-112016104D01*
X266771428Y-112016104D02*
X266733333Y-112054200D01*
X266733333Y-112054200D02*
X266657142Y-112092295D01*
X266657142Y-112092295D02*
X266428571Y-112092295D01*
X266428571Y-112092295D02*
X266352380Y-112054200D01*
X266352380Y-112054200D02*
X266314285Y-112016104D01*
X255228571Y-117172295D02*
X255228571Y-116372295D01*
X255228571Y-116372295D02*
X255533333Y-116372295D01*
X255533333Y-116372295D02*
X255609523Y-116410390D01*
X255609523Y-116410390D02*
X255647618Y-116448485D01*
X255647618Y-116448485D02*
X255685714Y-116524676D01*
X255685714Y-116524676D02*
X255685714Y-116638961D01*
X255685714Y-116638961D02*
X255647618Y-116715152D01*
X255647618Y-116715152D02*
X255609523Y-116753247D01*
X255609523Y-116753247D02*
X255533333Y-116791342D01*
X255533333Y-116791342D02*
X255228571Y-116791342D01*
X256447618Y-117172295D02*
X255990475Y-117172295D01*
X256219047Y-117172295D02*
X256219047Y-116372295D01*
X256219047Y-116372295D02*
X256142856Y-116486580D01*
X256142856Y-116486580D02*
X256066666Y-116562771D01*
X256066666Y-116562771D02*
X255990475Y-116600866D01*
X256904761Y-116715152D02*
X256828571Y-116677057D01*
X256828571Y-116677057D02*
X256790476Y-116638961D01*
X256790476Y-116638961D02*
X256752380Y-116562771D01*
X256752380Y-116562771D02*
X256752380Y-116524676D01*
X256752380Y-116524676D02*
X256790476Y-116448485D01*
X256790476Y-116448485D02*
X256828571Y-116410390D01*
X256828571Y-116410390D02*
X256904761Y-116372295D01*
X256904761Y-116372295D02*
X257057142Y-116372295D01*
X257057142Y-116372295D02*
X257133333Y-116410390D01*
X257133333Y-116410390D02*
X257171428Y-116448485D01*
X257171428Y-116448485D02*
X257209523Y-116524676D01*
X257209523Y-116524676D02*
X257209523Y-116562771D01*
X257209523Y-116562771D02*
X257171428Y-116638961D01*
X257171428Y-116638961D02*
X257133333Y-116677057D01*
X257133333Y-116677057D02*
X257057142Y-116715152D01*
X257057142Y-116715152D02*
X256904761Y-116715152D01*
X256904761Y-116715152D02*
X256828571Y-116753247D01*
X256828571Y-116753247D02*
X256790476Y-116791342D01*
X256790476Y-116791342D02*
X256752380Y-116867533D01*
X256752380Y-116867533D02*
X256752380Y-117019914D01*
X256752380Y-117019914D02*
X256790476Y-117096104D01*
X256790476Y-117096104D02*
X256828571Y-117134200D01*
X256828571Y-117134200D02*
X256904761Y-117172295D01*
X256904761Y-117172295D02*
X257057142Y-117172295D01*
X257057142Y-117172295D02*
X257133333Y-117134200D01*
X257133333Y-117134200D02*
X257171428Y-117096104D01*
X257171428Y-117096104D02*
X257209523Y-117019914D01*
X257209523Y-117019914D02*
X257209523Y-116867533D01*
X257209523Y-116867533D02*
X257171428Y-116791342D01*
X257171428Y-116791342D02*
X257133333Y-116753247D01*
X257133333Y-116753247D02*
X257057142Y-116715152D01*
X255590476Y-101170390D02*
X255514286Y-101132295D01*
X255514286Y-101132295D02*
X255400000Y-101132295D01*
X255400000Y-101132295D02*
X255285714Y-101170390D01*
X255285714Y-101170390D02*
X255209524Y-101246580D01*
X255209524Y-101246580D02*
X255171429Y-101322771D01*
X255171429Y-101322771D02*
X255133333Y-101475152D01*
X255133333Y-101475152D02*
X255133333Y-101589438D01*
X255133333Y-101589438D02*
X255171429Y-101741819D01*
X255171429Y-101741819D02*
X255209524Y-101818009D01*
X255209524Y-101818009D02*
X255285714Y-101894200D01*
X255285714Y-101894200D02*
X255400000Y-101932295D01*
X255400000Y-101932295D02*
X255476191Y-101932295D01*
X255476191Y-101932295D02*
X255590476Y-101894200D01*
X255590476Y-101894200D02*
X255628572Y-101856104D01*
X255628572Y-101856104D02*
X255628572Y-101589438D01*
X255628572Y-101589438D02*
X255476191Y-101589438D01*
X255971429Y-101932295D02*
X255971429Y-101132295D01*
X255971429Y-101132295D02*
X256428572Y-101932295D01*
X256428572Y-101932295D02*
X256428572Y-101132295D01*
X256809524Y-101932295D02*
X256809524Y-101132295D01*
X256809524Y-101132295D02*
X257000000Y-101132295D01*
X257000000Y-101132295D02*
X257114286Y-101170390D01*
X257114286Y-101170390D02*
X257190476Y-101246580D01*
X257190476Y-101246580D02*
X257228571Y-101322771D01*
X257228571Y-101322771D02*
X257266667Y-101475152D01*
X257266667Y-101475152D02*
X257266667Y-101589438D01*
X257266667Y-101589438D02*
X257228571Y-101741819D01*
X257228571Y-101741819D02*
X257190476Y-101818009D01*
X257190476Y-101818009D02*
X257114286Y-101894200D01*
X257114286Y-101894200D02*
X257000000Y-101932295D01*
X257000000Y-101932295D02*
X256809524Y-101932295D01*
X255133333Y-106212295D02*
X255400000Y-107012295D01*
X255400000Y-107012295D02*
X255666666Y-106212295D01*
X256390476Y-106936104D02*
X256352380Y-106974200D01*
X256352380Y-106974200D02*
X256238095Y-107012295D01*
X256238095Y-107012295D02*
X256161904Y-107012295D01*
X256161904Y-107012295D02*
X256047618Y-106974200D01*
X256047618Y-106974200D02*
X255971428Y-106898009D01*
X255971428Y-106898009D02*
X255933333Y-106821819D01*
X255933333Y-106821819D02*
X255895237Y-106669438D01*
X255895237Y-106669438D02*
X255895237Y-106555152D01*
X255895237Y-106555152D02*
X255933333Y-106402771D01*
X255933333Y-106402771D02*
X255971428Y-106326580D01*
X255971428Y-106326580D02*
X256047618Y-106250390D01*
X256047618Y-106250390D02*
X256161904Y-106212295D01*
X256161904Y-106212295D02*
X256238095Y-106212295D01*
X256238095Y-106212295D02*
X256352380Y-106250390D01*
X256352380Y-106250390D02*
X256390476Y-106288485D01*
X257190476Y-106936104D02*
X257152380Y-106974200D01*
X257152380Y-106974200D02*
X257038095Y-107012295D01*
X257038095Y-107012295D02*
X256961904Y-107012295D01*
X256961904Y-107012295D02*
X256847618Y-106974200D01*
X256847618Y-106974200D02*
X256771428Y-106898009D01*
X256771428Y-106898009D02*
X256733333Y-106821819D01*
X256733333Y-106821819D02*
X256695237Y-106669438D01*
X256695237Y-106669438D02*
X256695237Y-106555152D01*
X256695237Y-106555152D02*
X256733333Y-106402771D01*
X256733333Y-106402771D02*
X256771428Y-106326580D01*
X256771428Y-106326580D02*
X256847618Y-106250390D01*
X256847618Y-106250390D02*
X256961904Y-106212295D01*
X256961904Y-106212295D02*
X257038095Y-106212295D01*
X257038095Y-106212295D02*
X257152380Y-106250390D01*
X257152380Y-106250390D02*
X257190476Y-106288485D01*
X255647619Y-99392295D02*
X255380952Y-99011342D01*
X255190476Y-99392295D02*
X255190476Y-98592295D01*
X255190476Y-98592295D02*
X255495238Y-98592295D01*
X255495238Y-98592295D02*
X255571428Y-98630390D01*
X255571428Y-98630390D02*
X255609523Y-98668485D01*
X255609523Y-98668485D02*
X255647619Y-98744676D01*
X255647619Y-98744676D02*
X255647619Y-98858961D01*
X255647619Y-98858961D02*
X255609523Y-98935152D01*
X255609523Y-98935152D02*
X255571428Y-98973247D01*
X255571428Y-98973247D02*
X255495238Y-99011342D01*
X255495238Y-99011342D02*
X255190476Y-99011342D01*
X255952380Y-99163723D02*
X256333333Y-99163723D01*
X255876190Y-99392295D02*
X256142857Y-98592295D01*
X256142857Y-98592295D02*
X256409523Y-99392295D01*
X256599999Y-98592295D02*
X256790475Y-99392295D01*
X256790475Y-99392295D02*
X256942856Y-98820866D01*
X256942856Y-98820866D02*
X257095237Y-99392295D01*
X257095237Y-99392295D02*
X257285714Y-98592295D01*
X255761905Y-104472295D02*
X255495238Y-104091342D01*
X255304762Y-104472295D02*
X255304762Y-103672295D01*
X255304762Y-103672295D02*
X255609524Y-103672295D01*
X255609524Y-103672295D02*
X255685714Y-103710390D01*
X255685714Y-103710390D02*
X255723809Y-103748485D01*
X255723809Y-103748485D02*
X255761905Y-103824676D01*
X255761905Y-103824676D02*
X255761905Y-103938961D01*
X255761905Y-103938961D02*
X255723809Y-104015152D01*
X255723809Y-104015152D02*
X255685714Y-104053247D01*
X255685714Y-104053247D02*
X255609524Y-104091342D01*
X255609524Y-104091342D02*
X255304762Y-104091342D01*
X256066666Y-104434200D02*
X256180952Y-104472295D01*
X256180952Y-104472295D02*
X256371428Y-104472295D01*
X256371428Y-104472295D02*
X256447619Y-104434200D01*
X256447619Y-104434200D02*
X256485714Y-104396104D01*
X256485714Y-104396104D02*
X256523809Y-104319914D01*
X256523809Y-104319914D02*
X256523809Y-104243723D01*
X256523809Y-104243723D02*
X256485714Y-104167533D01*
X256485714Y-104167533D02*
X256447619Y-104129438D01*
X256447619Y-104129438D02*
X256371428Y-104091342D01*
X256371428Y-104091342D02*
X256219047Y-104053247D01*
X256219047Y-104053247D02*
X256142857Y-104015152D01*
X256142857Y-104015152D02*
X256104762Y-103977057D01*
X256104762Y-103977057D02*
X256066666Y-103900866D01*
X256066666Y-103900866D02*
X256066666Y-103824676D01*
X256066666Y-103824676D02*
X256104762Y-103748485D01*
X256104762Y-103748485D02*
X256142857Y-103710390D01*
X256142857Y-103710390D02*
X256219047Y-103672295D01*
X256219047Y-103672295D02*
X256409524Y-103672295D01*
X256409524Y-103672295D02*
X256523809Y-103710390D01*
X256752381Y-103672295D02*
X257209524Y-103672295D01*
X256980952Y-104472295D02*
X256980952Y-103672295D01*
X255228571Y-124792295D02*
X255228571Y-123992295D01*
X255228571Y-123992295D02*
X255533333Y-123992295D01*
X255533333Y-123992295D02*
X255609523Y-124030390D01*
X255609523Y-124030390D02*
X255647618Y-124068485D01*
X255647618Y-124068485D02*
X255685714Y-124144676D01*
X255685714Y-124144676D02*
X255685714Y-124258961D01*
X255685714Y-124258961D02*
X255647618Y-124335152D01*
X255647618Y-124335152D02*
X255609523Y-124373247D01*
X255609523Y-124373247D02*
X255533333Y-124411342D01*
X255533333Y-124411342D02*
X255228571Y-124411342D01*
X256447618Y-124792295D02*
X255990475Y-124792295D01*
X256219047Y-124792295D02*
X256219047Y-123992295D01*
X256219047Y-123992295D02*
X256142856Y-124106580D01*
X256142856Y-124106580D02*
X256066666Y-124182771D01*
X256066666Y-124182771D02*
X255990475Y-124220866D01*
X257133333Y-123992295D02*
X256980952Y-123992295D01*
X256980952Y-123992295D02*
X256904761Y-124030390D01*
X256904761Y-124030390D02*
X256866666Y-124068485D01*
X256866666Y-124068485D02*
X256790476Y-124182771D01*
X256790476Y-124182771D02*
X256752380Y-124335152D01*
X256752380Y-124335152D02*
X256752380Y-124639914D01*
X256752380Y-124639914D02*
X256790476Y-124716104D01*
X256790476Y-124716104D02*
X256828571Y-124754200D01*
X256828571Y-124754200D02*
X256904761Y-124792295D01*
X256904761Y-124792295D02*
X257057142Y-124792295D01*
X257057142Y-124792295D02*
X257133333Y-124754200D01*
X257133333Y-124754200D02*
X257171428Y-124716104D01*
X257171428Y-124716104D02*
X257209523Y-124639914D01*
X257209523Y-124639914D02*
X257209523Y-124449438D01*
X257209523Y-124449438D02*
X257171428Y-124373247D01*
X257171428Y-124373247D02*
X257133333Y-124335152D01*
X257133333Y-124335152D02*
X257057142Y-124297057D01*
X257057142Y-124297057D02*
X256904761Y-124297057D01*
X256904761Y-124297057D02*
X256828571Y-124335152D01*
X256828571Y-124335152D02*
X256790476Y-124373247D01*
X256790476Y-124373247D02*
X256752380Y-124449438D01*
%TO.C,B1*%
X258250000Y-132750000D02*
X258250000Y-135250000D01*
X259750000Y-131250000D02*
X258250000Y-132750000D01*
X259750000Y-136750000D02*
X258250000Y-135250000D01*
X262250000Y-131250000D02*
X259750000Y-131250000D01*
X262250000Y-131250000D02*
X263750000Y-132750000D01*
X262250000Y-136750000D02*
X259750000Y-136750000D01*
X262250000Y-136750000D02*
X263750000Y-135250000D01*
X263750000Y-132750000D02*
X263750000Y-135250000D01*
D13*
%TO.C,D3*%
X149250000Y-121000000D02*
X149650000Y-121000000D01*
X149650000Y-121000000D02*
X149650000Y-120450000D01*
X149650000Y-121000000D02*
X149650000Y-121550000D01*
X149650000Y-121000000D02*
X150250000Y-120600000D01*
X150250000Y-120600000D02*
X150250000Y-121400000D01*
X150250000Y-121000000D02*
X150750000Y-121000000D01*
X150250000Y-121400000D02*
X149650000Y-121000000D01*
%TO.C,D6*%
X167250000Y-121000000D02*
X167650000Y-121000000D01*
X167650000Y-121000000D02*
X167650000Y-120450000D01*
X167650000Y-121000000D02*
X167650000Y-121550000D01*
X167650000Y-121000000D02*
X168250000Y-120600000D01*
X168250000Y-120600000D02*
X168250000Y-121400000D01*
X168250000Y-121000000D02*
X168750000Y-121000000D01*
X168250000Y-121400000D02*
X167650000Y-121000000D01*
%TO.C,D14*%
X221250000Y-125000000D02*
X221650000Y-125000000D01*
X221650000Y-125000000D02*
X221650000Y-124450000D01*
X221650000Y-125000000D02*
X221650000Y-125550000D01*
X221650000Y-125000000D02*
X222250000Y-124600000D01*
X222250000Y-124600000D02*
X222250000Y-125400000D01*
X222250000Y-125000000D02*
X222750000Y-125000000D01*
X222250000Y-125400000D02*
X221650000Y-125000000D01*
%TO.C,D10*%
X203250000Y-137000000D02*
X203650000Y-137000000D01*
X203650000Y-137000000D02*
X203650000Y-136450000D01*
X203650000Y-137000000D02*
X203650000Y-137550000D01*
X203650000Y-137000000D02*
X204250000Y-136600000D01*
X204250000Y-136600000D02*
X204250000Y-137400000D01*
X204250000Y-137000000D02*
X204750000Y-137000000D01*
X204250000Y-137400000D02*
X203650000Y-137000000D01*
%TO.C,D8*%
X185250000Y-126000000D02*
X185650000Y-126000000D01*
X185650000Y-126000000D02*
X185650000Y-125450000D01*
X185650000Y-126000000D02*
X185650000Y-126550000D01*
X185650000Y-126000000D02*
X186250000Y-125600000D01*
X186250000Y-125600000D02*
X186250000Y-126400000D01*
X186250000Y-126000000D02*
X186750000Y-126000000D01*
X186250000Y-126400000D02*
X185650000Y-126000000D01*
D12*
%TO.C,MCU1*%
X252110000Y-95220000D02*
X252110000Y-128240000D01*
X252110000Y-128240000D02*
X269890000Y-128240000D01*
X254650000Y-97760000D02*
X252110000Y-97760000D01*
X254650000Y-97760000D02*
X254650000Y-100300000D01*
X254650000Y-100300000D02*
X252110000Y-100300000D01*
X269890000Y-95220000D02*
X252110000Y-95220000D01*
X269890000Y-128240000D02*
X269890000Y-95220000D01*
D13*
%TO.C,D17*%
X239250000Y-125000000D02*
X239650000Y-125000000D01*
X239650000Y-125000000D02*
X239650000Y-124450000D01*
X239650000Y-125000000D02*
X239650000Y-125550000D01*
X239650000Y-125000000D02*
X240250000Y-124600000D01*
X240250000Y-124600000D02*
X240250000Y-125400000D01*
X240250000Y-125000000D02*
X240750000Y-125000000D01*
X240250000Y-125400000D02*
X239650000Y-125000000D01*
%TO.C,D12*%
X203250000Y-103000000D02*
X203650000Y-103000000D01*
X203650000Y-103000000D02*
X203650000Y-102450000D01*
X203650000Y-103000000D02*
X203650000Y-103550000D01*
X203650000Y-103000000D02*
X204250000Y-102600000D01*
X204250000Y-102600000D02*
X204250000Y-103400000D01*
X204250000Y-103000000D02*
X204750000Y-103000000D01*
X204250000Y-103400000D02*
X203650000Y-103000000D01*
%TO.C,D13*%
X221250000Y-142000000D02*
X221650000Y-142000000D01*
X221650000Y-142000000D02*
X221650000Y-141450000D01*
X221650000Y-142000000D02*
X221650000Y-142550000D01*
X221650000Y-142000000D02*
X222250000Y-141600000D01*
X222250000Y-141600000D02*
X222250000Y-142400000D01*
X222250000Y-142000000D02*
X222750000Y-142000000D01*
X222250000Y-142400000D02*
X221650000Y-142000000D01*
%TO.C,D11*%
X203250000Y-120000000D02*
X203650000Y-120000000D01*
X203650000Y-120000000D02*
X203650000Y-119450000D01*
X203650000Y-120000000D02*
X203650000Y-120550000D01*
X203650000Y-120000000D02*
X204250000Y-119600000D01*
X204250000Y-119600000D02*
X204250000Y-120400000D01*
X204250000Y-120000000D02*
X204750000Y-120000000D01*
X204250000Y-120400000D02*
X203650000Y-120000000D01*
%TO.C,D1*%
X149250000Y-155000000D02*
X149650000Y-155000000D01*
X149650000Y-155000000D02*
X149650000Y-154450000D01*
X149650000Y-155000000D02*
X149650000Y-155550000D01*
X149650000Y-155000000D02*
X150250000Y-154600000D01*
X150250000Y-154600000D02*
X150250000Y-155400000D01*
X150250000Y-155000000D02*
X150750000Y-155000000D01*
X150250000Y-155400000D02*
X149650000Y-155000000D01*
%TO.C,D5*%
X167250000Y-138000000D02*
X167650000Y-138000000D01*
X167650000Y-138000000D02*
X167650000Y-137450000D01*
X167650000Y-138000000D02*
X167650000Y-138550000D01*
X167650000Y-138000000D02*
X168250000Y-137600000D01*
X168250000Y-137600000D02*
X168250000Y-138400000D01*
X168250000Y-138000000D02*
X168750000Y-138000000D01*
X168250000Y-138400000D02*
X167650000Y-138000000D01*
%TO.C,D15*%
X221250000Y-108000000D02*
X221650000Y-108000000D01*
X221650000Y-108000000D02*
X221650000Y-107450000D01*
X221650000Y-108000000D02*
X221650000Y-108550000D01*
X221650000Y-108000000D02*
X222250000Y-107600000D01*
X222250000Y-107600000D02*
X222250000Y-108400000D01*
X222250000Y-108000000D02*
X222750000Y-108000000D01*
X222250000Y-108400000D02*
X221650000Y-108000000D01*
%TO.C,D18*%
X239250000Y-108000000D02*
X239650000Y-108000000D01*
X239650000Y-108000000D02*
X239650000Y-107450000D01*
X239650000Y-108000000D02*
X239650000Y-108550000D01*
X239650000Y-108000000D02*
X240250000Y-107600000D01*
X240250000Y-107600000D02*
X240250000Y-108400000D01*
X240250000Y-108000000D02*
X240750000Y-108000000D01*
X240250000Y-108400000D02*
X239650000Y-108000000D01*
%TO.C,D21*%
X255207178Y-169714575D02*
X255569701Y-169883623D01*
X255569701Y-169883623D02*
X255337261Y-170382092D01*
X255569701Y-169883623D02*
X255802141Y-169385153D01*
X255569701Y-169883623D02*
X256282533Y-169774670D01*
X255944439Y-170499717D02*
X255569701Y-169883623D01*
X256113486Y-170137194D02*
X256566640Y-170348503D01*
X256282533Y-169774670D02*
X255944439Y-170499717D01*
%TO.C,D7*%
X185250000Y-143000000D02*
X185650000Y-143000000D01*
X185650000Y-143000000D02*
X185650000Y-142450000D01*
X185650000Y-143000000D02*
X185650000Y-143550000D01*
X185650000Y-143000000D02*
X186250000Y-142600000D01*
X186250000Y-142600000D02*
X186250000Y-143400000D01*
X186250000Y-143000000D02*
X186750000Y-143000000D01*
X186250000Y-143400000D02*
X185650000Y-143000000D01*
%TO.C,D2*%
X149250000Y-138000000D02*
X149650000Y-138000000D01*
X149650000Y-138000000D02*
X149650000Y-137450000D01*
X149650000Y-138000000D02*
X149650000Y-138550000D01*
X149650000Y-138000000D02*
X150250000Y-137600000D01*
X150250000Y-137600000D02*
X150250000Y-138400000D01*
X150250000Y-138000000D02*
X150750000Y-138000000D01*
X150250000Y-138400000D02*
X149650000Y-138000000D01*
%TO.C,D9*%
X185250000Y-109000000D02*
X185650000Y-109000000D01*
X185650000Y-109000000D02*
X185650000Y-108450000D01*
X185650000Y-109000000D02*
X185650000Y-109550000D01*
X185650000Y-109000000D02*
X186250000Y-108600000D01*
X186250000Y-108600000D02*
X186250000Y-109400000D01*
X186250000Y-109000000D02*
X186750000Y-109000000D01*
X186250000Y-109400000D02*
X185650000Y-109000000D01*
%TO.C,D19*%
X210188633Y-162046341D02*
X210587111Y-162011480D01*
X210587111Y-162011480D02*
X210539175Y-161463571D01*
X210587111Y-162011480D02*
X210635047Y-162559386D01*
X210587111Y-162011480D02*
X211149965Y-161560707D01*
X211149965Y-161560707D02*
X211219690Y-162357663D01*
X211184828Y-161959185D02*
X211682925Y-161915607D01*
X211219690Y-162357663D02*
X210587111Y-162011480D01*
%TO.C,D20*%
X232893153Y-162793803D02*
X233287076Y-162863262D01*
X233287076Y-162863262D02*
X233191570Y-163404906D01*
X233287076Y-162863262D02*
X233382583Y-162321618D01*
X233287076Y-162863262D02*
X233947420Y-162573528D01*
X233808502Y-163361374D02*
X233287076Y-162863262D01*
X233877961Y-162967451D02*
X234370365Y-163054275D01*
X233947420Y-162573528D02*
X233808502Y-163361374D01*
%TO.C,D4*%
X167250000Y-155000000D02*
X167650000Y-155000000D01*
X167650000Y-155000000D02*
X167650000Y-154450000D01*
X167650000Y-155000000D02*
X167650000Y-155550000D01*
X167650000Y-155000000D02*
X168250000Y-154600000D01*
X168250000Y-154600000D02*
X168250000Y-155400000D01*
X168250000Y-155000000D02*
X168750000Y-155000000D01*
X168250000Y-155400000D02*
X167650000Y-155000000D01*
%TO.C,D16*%
X239250000Y-142000000D02*
X239650000Y-142000000D01*
X239650000Y-142000000D02*
X239650000Y-141450000D01*
X239650000Y-142000000D02*
X239650000Y-142550000D01*
X239650000Y-142000000D02*
X240250000Y-141600000D01*
X240250000Y-141600000D02*
X240250000Y-142400000D01*
X240250000Y-142000000D02*
X240750000Y-142000000D01*
X240250000Y-142400000D02*
X239650000Y-142000000D01*
%TD*%
D14*
%TO.C,MCU1*%
X253380000Y-99030000D03*
D15*
X253380000Y-101570000D03*
X253380000Y-104110000D03*
X253380000Y-106650000D03*
X253380000Y-109190000D03*
X253380000Y-111730000D03*
X253380000Y-114270000D03*
X253380000Y-116810000D03*
X253380000Y-119350000D03*
X253380000Y-121890000D03*
X253380000Y-124430000D03*
X253380000Y-126970000D03*
X268620000Y-99030000D03*
X268620000Y-101570000D03*
X268620000Y-104110000D03*
X268620000Y-106650000D03*
X268620000Y-109190000D03*
X268620000Y-111730000D03*
X268620000Y-114270000D03*
X268620000Y-116810000D03*
X268620000Y-119350000D03*
X268620000Y-121890000D03*
X268620000Y-124430000D03*
X268620000Y-126970000D03*
%TD*%
M02*
