%TF.GenerationSoftware,KiCad,Pcbnew,8.0.7*%
%TF.CreationDate,2024-12-30T14:18:56+04:00*%
%TF.ProjectId,ergoblock,6572676f-626c-46f6-936b-2e6b69636164,v1.0.0*%
%TF.SameCoordinates,Original*%
%TF.FileFunction,Legend,Bot*%
%TF.FilePolarity,Positive*%
%FSLAX46Y46*%
G04 Gerber Fmt 4.6, Leading zero omitted, Abs format (unit mm)*
G04 Created by KiCad (PCBNEW 8.0.7) date 2024-12-30 14:18:56*
%MOMM*%
%LPD*%
G01*
G04 APERTURE LIST*
%ADD10C,0.100000*%
%ADD11C,0.150000*%
%ADD12R,1.752600X1.752600*%
%ADD13C,1.752600*%
G04 APERTURE END LIST*
D10*
%TO.C,D3*%
X149250000Y-121000000D02*
X149650000Y-121000000D01*
X149650000Y-121000000D02*
X149650000Y-120450000D01*
X149650000Y-121000000D02*
X149650000Y-121550000D01*
X149650000Y-121000000D02*
X150250000Y-120600000D01*
X150250000Y-120600000D02*
X150250000Y-121400000D01*
X150250000Y-121000000D02*
X150750000Y-121000000D01*
X150250000Y-121400000D02*
X149650000Y-121000000D01*
%TO.C,D6*%
X167250000Y-121000000D02*
X167650000Y-121000000D01*
X167650000Y-121000000D02*
X167650000Y-120450000D01*
X167650000Y-121000000D02*
X167650000Y-121550000D01*
X167650000Y-121000000D02*
X168250000Y-120600000D01*
X168250000Y-120600000D02*
X168250000Y-121400000D01*
X168250000Y-121000000D02*
X168750000Y-121000000D01*
X168250000Y-121400000D02*
X167650000Y-121000000D01*
%TO.C,D14*%
X221250000Y-125000000D02*
X221650000Y-125000000D01*
X221650000Y-125000000D02*
X221650000Y-124450000D01*
X221650000Y-125000000D02*
X221650000Y-125550000D01*
X221650000Y-125000000D02*
X222250000Y-124600000D01*
X222250000Y-124600000D02*
X222250000Y-125400000D01*
X222250000Y-125000000D02*
X222750000Y-125000000D01*
X222250000Y-125400000D02*
X221650000Y-125000000D01*
%TO.C,D10*%
X203250000Y-137000000D02*
X203650000Y-137000000D01*
X203650000Y-137000000D02*
X203650000Y-136450000D01*
X203650000Y-137000000D02*
X203650000Y-137550000D01*
X203650000Y-137000000D02*
X204250000Y-136600000D01*
X204250000Y-136600000D02*
X204250000Y-137400000D01*
X204250000Y-137000000D02*
X204750000Y-137000000D01*
X204250000Y-137400000D02*
X203650000Y-137000000D01*
%TO.C,D8*%
X185250000Y-126000000D02*
X185650000Y-126000000D01*
X185650000Y-126000000D02*
X185650000Y-125450000D01*
X185650000Y-126000000D02*
X185650000Y-126550000D01*
X185650000Y-126000000D02*
X186250000Y-125600000D01*
X186250000Y-125600000D02*
X186250000Y-126400000D01*
X186250000Y-126000000D02*
X186750000Y-126000000D01*
X186250000Y-126400000D02*
X185650000Y-126000000D01*
%TO.C,D17*%
X239250000Y-125000000D02*
X239650000Y-125000000D01*
X239650000Y-125000000D02*
X239650000Y-124450000D01*
X239650000Y-125000000D02*
X239650000Y-125550000D01*
X239650000Y-125000000D02*
X240250000Y-124600000D01*
X240250000Y-124600000D02*
X240250000Y-125400000D01*
X240250000Y-125000000D02*
X240750000Y-125000000D01*
X240250000Y-125400000D02*
X239650000Y-125000000D01*
%TO.C,D12*%
X203250000Y-103000000D02*
X203650000Y-103000000D01*
X203650000Y-103000000D02*
X203650000Y-102450000D01*
X203650000Y-103000000D02*
X203650000Y-103550000D01*
X203650000Y-103000000D02*
X204250000Y-102600000D01*
X204250000Y-102600000D02*
X204250000Y-103400000D01*
X204250000Y-103000000D02*
X204750000Y-103000000D01*
X204250000Y-103400000D02*
X203650000Y-103000000D01*
%TO.C,D13*%
X221250000Y-142000000D02*
X221650000Y-142000000D01*
X221650000Y-142000000D02*
X221650000Y-141450000D01*
X221650000Y-142000000D02*
X221650000Y-142550000D01*
X221650000Y-142000000D02*
X222250000Y-141600000D01*
X222250000Y-141600000D02*
X222250000Y-142400000D01*
X222250000Y-142000000D02*
X222750000Y-142000000D01*
X222250000Y-142400000D02*
X221650000Y-142000000D01*
%TO.C,D11*%
X203250000Y-120000000D02*
X203650000Y-120000000D01*
X203650000Y-120000000D02*
X203650000Y-119450000D01*
X203650000Y-120000000D02*
X203650000Y-120550000D01*
X203650000Y-120000000D02*
X204250000Y-119600000D01*
X204250000Y-119600000D02*
X204250000Y-120400000D01*
X204250000Y-120000000D02*
X204750000Y-120000000D01*
X204250000Y-120400000D02*
X203650000Y-120000000D01*
%TO.C,D1*%
X149250000Y-155000000D02*
X149650000Y-155000000D01*
X149650000Y-155000000D02*
X149650000Y-154450000D01*
X149650000Y-155000000D02*
X149650000Y-155550000D01*
X149650000Y-155000000D02*
X150250000Y-154600000D01*
X150250000Y-154600000D02*
X150250000Y-155400000D01*
X150250000Y-155000000D02*
X150750000Y-155000000D01*
X150250000Y-155400000D02*
X149650000Y-155000000D01*
%TO.C,D5*%
X167250000Y-138000000D02*
X167650000Y-138000000D01*
X167650000Y-138000000D02*
X167650000Y-137450000D01*
X167650000Y-138000000D02*
X167650000Y-138550000D01*
X167650000Y-138000000D02*
X168250000Y-137600000D01*
X168250000Y-137600000D02*
X168250000Y-138400000D01*
X168250000Y-138000000D02*
X168750000Y-138000000D01*
X168250000Y-138400000D02*
X167650000Y-138000000D01*
%TO.C,D15*%
X221250000Y-108000000D02*
X221650000Y-108000000D01*
X221650000Y-108000000D02*
X221650000Y-107450000D01*
X221650000Y-108000000D02*
X221650000Y-108550000D01*
X221650000Y-108000000D02*
X222250000Y-107600000D01*
X222250000Y-107600000D02*
X222250000Y-108400000D01*
X222250000Y-108000000D02*
X222750000Y-108000000D01*
X222250000Y-108400000D02*
X221650000Y-108000000D01*
%TO.C,D18*%
X239250000Y-108000000D02*
X239650000Y-108000000D01*
X239650000Y-108000000D02*
X239650000Y-107450000D01*
X239650000Y-108000000D02*
X239650000Y-108550000D01*
X239650000Y-108000000D02*
X240250000Y-107600000D01*
X240250000Y-107600000D02*
X240250000Y-108400000D01*
X240250000Y-108000000D02*
X240750000Y-108000000D01*
X240250000Y-108400000D02*
X239650000Y-108000000D01*
%TO.C,D21*%
X255207178Y-169714575D02*
X255569701Y-169883623D01*
X255569701Y-169883623D02*
X255337261Y-170382092D01*
X255569701Y-169883623D02*
X255802141Y-169385153D01*
X255569701Y-169883623D02*
X256282533Y-169774670D01*
X255944439Y-170499717D02*
X255569701Y-169883623D01*
X256113486Y-170137194D02*
X256566640Y-170348503D01*
X256282533Y-169774670D02*
X255944439Y-170499717D01*
%TO.C,D7*%
X185250000Y-143000000D02*
X185650000Y-143000000D01*
X185650000Y-143000000D02*
X185650000Y-142450000D01*
X185650000Y-143000000D02*
X185650000Y-143550000D01*
X185650000Y-143000000D02*
X186250000Y-142600000D01*
X186250000Y-142600000D02*
X186250000Y-143400000D01*
X186250000Y-143000000D02*
X186750000Y-143000000D01*
X186250000Y-143400000D02*
X185650000Y-143000000D01*
%TO.C,D2*%
X149250000Y-138000000D02*
X149650000Y-138000000D01*
X149650000Y-138000000D02*
X149650000Y-137450000D01*
X149650000Y-138000000D02*
X149650000Y-138550000D01*
X149650000Y-138000000D02*
X150250000Y-137600000D01*
X150250000Y-137600000D02*
X150250000Y-138400000D01*
X150250000Y-138000000D02*
X150750000Y-138000000D01*
X150250000Y-138400000D02*
X149650000Y-138000000D01*
%TO.C,D9*%
X185250000Y-109000000D02*
X185650000Y-109000000D01*
X185650000Y-109000000D02*
X185650000Y-108450000D01*
X185650000Y-109000000D02*
X185650000Y-109550000D01*
X185650000Y-109000000D02*
X186250000Y-108600000D01*
X186250000Y-108600000D02*
X186250000Y-109400000D01*
X186250000Y-109000000D02*
X186750000Y-109000000D01*
X186250000Y-109400000D02*
X185650000Y-109000000D01*
%TO.C,D19*%
X210188633Y-162046341D02*
X210587111Y-162011480D01*
X210587111Y-162011480D02*
X210539175Y-161463571D01*
X210587111Y-162011480D02*
X210635047Y-162559386D01*
X210587111Y-162011480D02*
X211149965Y-161560707D01*
X211149965Y-161560707D02*
X211219690Y-162357663D01*
X211184828Y-161959185D02*
X211682925Y-161915607D01*
X211219690Y-162357663D02*
X210587111Y-162011480D01*
%TO.C,D20*%
X232893153Y-162793803D02*
X233287076Y-162863262D01*
X233287076Y-162863262D02*
X233191570Y-163404906D01*
X233287076Y-162863262D02*
X233382583Y-162321618D01*
X233287076Y-162863262D02*
X233947420Y-162573528D01*
X233808502Y-163361374D02*
X233287076Y-162863262D01*
X233877961Y-162967451D02*
X234370365Y-163054275D01*
X233947420Y-162573528D02*
X233808502Y-163361374D01*
%TO.C,D4*%
X167250000Y-155000000D02*
X167650000Y-155000000D01*
X167650000Y-155000000D02*
X167650000Y-154450000D01*
X167650000Y-155000000D02*
X167650000Y-155550000D01*
X167650000Y-155000000D02*
X168250000Y-154600000D01*
X168250000Y-154600000D02*
X168250000Y-155400000D01*
X168250000Y-155000000D02*
X168750000Y-155000000D01*
X168250000Y-155400000D02*
X167650000Y-155000000D01*
D11*
%TO.C,B2*%
X258250000Y-132750000D02*
X258250000Y-135250000D01*
X259750000Y-131250000D02*
X258250000Y-132750000D01*
X259750000Y-136750000D02*
X258250000Y-135250000D01*
X262250000Y-131250000D02*
X259750000Y-131250000D01*
X262250000Y-131250000D02*
X263750000Y-132750000D01*
X262250000Y-136750000D02*
X259750000Y-136750000D01*
X262250000Y-136750000D02*
X263750000Y-135250000D01*
X263750000Y-132750000D02*
X263750000Y-135250000D01*
D10*
%TO.C,D16*%
X239250000Y-142000000D02*
X239650000Y-142000000D01*
X239650000Y-142000000D02*
X239650000Y-141450000D01*
X239650000Y-142000000D02*
X239650000Y-142550000D01*
X239650000Y-142000000D02*
X240250000Y-141600000D01*
X240250000Y-141600000D02*
X240250000Y-142400000D01*
X240250000Y-142000000D02*
X240750000Y-142000000D01*
X240250000Y-142400000D02*
X239650000Y-142000000D01*
%TD*%
D12*
%TO.C,MCU1*%
X253380000Y-99030000D03*
D13*
X253380000Y-101570000D03*
X253380000Y-104110000D03*
X253380000Y-106650000D03*
X253380000Y-109190000D03*
X253380000Y-111730000D03*
X253380000Y-114270000D03*
X253380000Y-116810000D03*
X253380000Y-119350000D03*
X253380000Y-121890000D03*
X253380000Y-124430000D03*
X253380000Y-126970000D03*
X268620000Y-99030000D03*
X268620000Y-101570000D03*
X268620000Y-104110000D03*
X268620000Y-106650000D03*
X268620000Y-109190000D03*
X268620000Y-111730000D03*
X268620000Y-114270000D03*
X268620000Y-116810000D03*
X268620000Y-119350000D03*
X268620000Y-121890000D03*
X268620000Y-124430000D03*
X268620000Y-126970000D03*
%TD*%
M02*
