%TF.GenerationSoftware,KiCad,Pcbnew,8.0.7*%
%TF.CreationDate,2024-12-30T14:18:56+04:00*%
%TF.ProjectId,ergoblock,6572676f-626c-46f6-936b-2e6b69636164,v1.0.0*%
%TF.SameCoordinates,Original*%
%TF.FileFunction,Profile,NP*%
%FSLAX46Y46*%
G04 Gerber Fmt 4.6, Leading zero omitted, Abs format (unit mm)*
G04 Created by KiCad (PCBNEW 8.0.7) date 2024-12-30 14:18:56*
%MOMM*%
%LPD*%
G01*
G04 APERTURE LIST*
%TA.AperFunction,Profile*%
%ADD10C,0.150000*%
%TD*%
G04 APERTURE END LIST*
D10*
X215000000Y-89000000D02*
X215000000Y-90000000D01*
X174500000Y-95000000D02*
G75*
G02*
X176500000Y-93000000I2000000J0D01*
G01*
X202478784Y-168731275D02*
G75*
G02*
X200301999Y-166939904I-186784J1991275D01*
G01*
X193000000Y-91000000D02*
G75*
G02*
X191000000Y-93000000I-2000000J0D01*
G01*
X272450000Y-159718767D02*
X272450000Y-94000000D01*
X213000000Y-87000000D02*
G75*
G02*
X215000000Y-89000000I0J-2000000D01*
G01*
X179000000Y-151000000D02*
G75*
G02*
X181000000Y-149000000I2000000J0D01*
G01*
X141000000Y-105000000D02*
X172500000Y-105000000D01*
X243126488Y-170774563D02*
X222026204Y-166971282D01*
X193000000Y-89000000D02*
G75*
G02*
X195000000Y-87000000I2000000J0D01*
G01*
X139000000Y-159000000D02*
X139000000Y-107000000D01*
X179000000Y-159000000D02*
G75*
G02*
X177000000Y-161000000I-2000000J0D01*
G01*
X217000000Y-92000000D02*
G75*
G02*
X215000000Y-90000000I0J2000000D01*
G01*
X139000000Y-107000000D02*
G75*
G02*
X141000000Y-105000000I2000000J0D01*
G01*
X179000000Y-151000000D02*
X179000000Y-159000000D01*
X174500000Y-103000000D02*
G75*
G02*
X172500000Y-105000000I-2000000J0D01*
G01*
X196690828Y-149000000D02*
X181000000Y-149000000D01*
X272288705Y-160885991D02*
X264165821Y-178305571D01*
X141000000Y-161000000D02*
X177000000Y-161000000D01*
X221484623Y-166948306D02*
X202478784Y-168731275D01*
X193000000Y-91000000D02*
X193000000Y-89000000D01*
X261507969Y-179272950D02*
X243616946Y-170930229D01*
X174500000Y-103000000D02*
X174500000Y-95000000D01*
X196690828Y-149000000D02*
G75*
G02*
X198680876Y-150800108I-28J-2000100D01*
G01*
X200301994Y-166939905D02*
X198680814Y-150800114D01*
X217000000Y-92000000D02*
X270450000Y-92000000D01*
X270450000Y-92000000D02*
G75*
G02*
X272450000Y-94000000I0J-2000000D01*
G01*
X195000000Y-87000000D02*
X213000000Y-87000000D01*
X264165821Y-178305571D02*
G75*
G02*
X261507973Y-179272942I-1812621J845271D01*
G01*
X176500000Y-93000000D02*
X191000000Y-93000000D01*
X243126488Y-170774563D02*
G75*
G02*
X243616944Y-170930234I-354788J-1968237D01*
G01*
X272450000Y-159718767D02*
G75*
G02*
X272288706Y-160885992I-1973600J-322033D01*
G01*
X221484623Y-166948306D02*
G75*
G02*
X222026204Y-166971285I186777J-1991594D01*
G01*
X141000000Y-161000000D02*
G75*
G02*
X139000000Y-159000000I0J2000000D01*
G01*
M02*
