M48
; DRILL file {KiCad 8.0.7} date 2024-12-30T14:18:53+0400
; FORMAT={-:-/ absolute / inch / decimal}
; #@! TF.CreationDate,2024-12-30T14:18:53+04:00
; #@! TF.GenerationSoftware,Kicad,Pcbnew,8.0.7
; #@! TF.FileFunction,NonPlated,1,2,NPTH
FMAT,2
INCH
; #@! TA.AperFunction,NonPlated,NPTH,ComponentDrill
T1C0.0591
; #@! TA.AperFunction,NonPlated,NPTH,ComponentDrill
T2C0.0670
; #@! TA.AperFunction,NonPlated,NPTH,ComponentDrill
T3C0.1181
; #@! TA.AperFunction,NonPlated,NPTH,ComponentDrill
T4C0.1350
%
G90
G05
T1
X10.2913Y-5.7874
X10.5669Y-5.7874
T2
X5.689Y-4.5669
X5.689Y-5.2362
X5.689Y-5.9055
X6.122Y-4.5669
X6.122Y-5.2362
X6.122Y-5.9055
X6.3976Y-4.5669
X6.3976Y-5.2362
X6.3976Y-5.9055
X6.8307Y-4.5669
X6.8307Y-5.2362
X6.8307Y-5.9055
X7.1063Y-4.0945
X7.1063Y-4.7638
X7.1063Y-5.4331
X7.5394Y-4.0945
X7.5394Y-4.7638
X7.5394Y-5.4331
X7.815Y-3.8583
X7.815Y-4.5276
X7.815Y-5.1969
X8.0717Y-6.2
X8.248Y-3.8583
X8.248Y-4.5276
X8.248Y-5.1969
X8.5031Y-6.1622
X8.5236Y-4.0551
X8.5236Y-4.7244
X8.5236Y-5.3937
X8.9567Y-4.0551
X8.9567Y-4.7244
X8.9567Y-5.3937
X9.019Y-6.1829
X9.2323Y-4.0551
X9.2323Y-4.7244
X9.2323Y-5.3937
X9.4455Y-6.2581
X9.6654Y-4.0551
X9.6654Y-4.7244
X9.6654Y-5.3937
X9.9612Y-6.4242
X10.3537Y-6.6073
T3
X5.7087Y-4.4193
X5.7087Y-5.0886
X5.7087Y-5.7579
X5.9055Y-4.3327
X5.9055Y-4.3327
X5.9055Y-5.002
X5.9055Y-5.002
X5.9055Y-5.6713
X5.9055Y-5.6713
X6.1024Y-4.4193
X6.1024Y-5.0886
X6.1024Y-5.7579
X6.4173Y-4.4193
X6.4173Y-5.0886
X6.4173Y-5.7579
X6.6142Y-4.3327
X6.6142Y-4.3327
X6.6142Y-5.002
X6.6142Y-5.002
X6.6142Y-5.6713
X6.6142Y-5.6713
X6.811Y-4.4193
X6.811Y-5.0886
X6.811Y-5.7579
X7.126Y-3.9469
X7.126Y-4.6161
X7.126Y-5.2854
X7.3228Y-3.8602
X7.3228Y-3.8602
X7.3228Y-4.5295
X7.3228Y-4.5295
X7.3228Y-5.1988
X7.3228Y-5.1988
X7.5197Y-3.9469
X7.5197Y-4.6161
X7.5197Y-5.2854
X7.8346Y-3.7106
X7.8346Y-4.3799
X7.8346Y-5.0492
X8.0315Y-3.624
X8.0315Y-3.624
X8.0315Y-4.2933
X8.0315Y-4.2933
X8.0315Y-4.9626
X8.0315Y-4.9626
X8.0784Y-6.0512
X8.2283Y-3.7106
X8.2283Y-4.3799
X8.2283Y-5.0492
X8.267Y-5.9477
X8.267Y-5.9477
X8.4706Y-6.0169
X8.5433Y-3.9075
X8.5433Y-4.5768
X8.5433Y-5.2461
X8.7402Y-3.8209
X8.7402Y-3.8209
X8.7402Y-4.4902
X8.7402Y-4.4902
X8.7402Y-5.1594
X8.7402Y-5.1594
X8.937Y-3.9075
X8.937Y-4.5768
X8.937Y-5.2461
X9.0641Y-6.0409
X9.252Y-3.9075
X9.252Y-4.5768
X9.252Y-5.2461
X9.273Y-5.9898
X9.273Y-5.9898
X9.4488Y-3.8209
X9.4488Y-3.8209
X9.4488Y-4.4902
X9.4488Y-4.4902
X9.4488Y-5.1594
X9.4488Y-5.1594
X9.4518Y-6.1093
X9.6457Y-3.9075
X9.6457Y-4.5768
X9.6457Y-5.2461
X10.0415Y-6.2988
X10.2565Y-6.3034
X10.2565Y-6.3034
X10.3983Y-6.4651
T4
X5.9055Y-4.5669
X5.9055Y-5.2362
X5.9055Y-5.9055
X6.6142Y-4.5669
X6.6142Y-5.2362
X6.6142Y-5.9055
X7.3228Y-4.0945
X7.3228Y-4.7638
X7.3228Y-5.4331
X8.0315Y-3.8583
X8.0315Y-4.5276
X8.0315Y-5.1969
X8.2874Y-6.1811
X8.7402Y-4.0551
X8.7402Y-4.7244
X8.7402Y-5.3937
X9.2323Y-6.2205
X9.4488Y-4.0551
X9.4488Y-4.7244
X9.4488Y-5.3937
X10.1575Y-6.5157
M30
