M48
; DRILL file {KiCad 8.0.7} date 2024-12-30T14:18:53+0400
; FORMAT={-:-/ absolute / inch / decimal}
; #@! TF.CreationDate,2024-12-30T14:18:53+04:00
; #@! TF.GenerationSoftware,Kicad,Pcbnew,8.0.7
; #@! TF.FileFunction,Plated,1,2,PTH
FMAT,2
INCH
; #@! TA.AperFunction,Plated,PTH,ViaDrill
T1C0.0118
; #@! TA.AperFunction,Plated,PTH,ComponentDrill
T2C0.0118
; #@! TA.AperFunction,Plated,PTH,ComponentDrill
T3C0.0354
; #@! TA.AperFunction,Plated,PTH,ComponentDrill
T4C0.0430
%
G90
G05
T1
X5.6289Y-4.9134
X5.7933Y-4.7638
X5.7933Y-5.4331
X5.7933Y-6.1024
X6.0177Y-4.7638
X6.0177Y-5.4331
X6.0177Y-6.1024
X6.4783Y-5.5354
X6.502Y-4.7638
X6.502Y-5.4331
X6.502Y-6.1024
X6.5039Y-4.4547
X6.5039Y-5.1102
X6.7264Y-4.7638
X6.7264Y-5.4331
X6.7264Y-6.1024
X7.1745Y-4.6929
X7.1745Y-5.0866
X7.2106Y-4.2913
X7.2106Y-4.9606
X7.2106Y-5.6299
X7.2126Y-3.9448
X7.435Y-4.2913
X7.435Y-4.9606
X7.435Y-5.6299
X7.8957Y-4.189
X7.8957Y-4.874
X7.9193Y-4.0551
X7.9193Y-4.7244
X7.9193Y-5.3937
X7.9213Y-3.7087
X7.9992Y-5.8197
X8.1437Y-4.0551
X8.1437Y-4.7244
X8.1437Y-5.3937
X8.1928Y-6.387
X8.4163Y-6.3674
X8.6043Y-5.0709
X8.628Y-4.252
X8.628Y-4.9213
X8.628Y-5.5906
X8.6299Y-3.9055
X8.6299Y-4.5748
X8.8268Y-5.8425
X8.8524Y-4.252
X8.8524Y-4.9213
X8.8524Y-5.5906
X9.0876Y-6.3948
X9.3086Y-6.4338
X9.313Y-4.3937
X9.313Y-5.0709
X9.3366Y-4.252
X9.3366Y-4.9213
X9.3366Y-5.5906
X9.3386Y-3.8976
X9.561Y-4.252
X9.561Y-4.9213
X9.561Y-5.5906
X9.9726Y-6.6467
X10.176Y-6.7416
T2
X10.1378Y-5.2756
X10.4134Y-5.2756
T4
X9.9756Y-3.8988
X9.9756Y-3.9988
X9.9756Y-4.0988
X9.9756Y-4.1988
X9.9756Y-4.2988
X9.9756Y-4.3988
X9.9756Y-4.4988
X9.9756Y-4.5988
X9.9756Y-4.6988
X9.9756Y-4.7988
X9.9756Y-4.8988
X9.9756Y-4.9988
X10.5756Y-3.8988
X10.5756Y-3.9988
X10.5756Y-4.0988
X10.5756Y-4.1988
X10.5756Y-4.2988
X10.5756Y-4.3988
X10.5756Y-4.4988
X10.5756Y-4.5988
X10.5756Y-4.6988
X10.5756Y-4.7988
X10.5756Y-4.8988
X10.5756Y-4.9988
T3
G00X10.2402Y-5.6969
M15
G01X10.1732Y-5.6969
M16
G05
G00X10.2402Y-5.878
M15
G01X10.1732Y-5.878
M16
G05
G00X10.3976Y-5.6969
M15
G01X10.374Y-5.6969
M16
G05
G00X10.3976Y-5.878
M15
G01X10.374Y-5.878
M16
G05
G00X10.5157Y-5.6969
M15
G01X10.4921Y-5.6969
M16
G05
G00X10.5157Y-5.878
M15
G01X10.4921Y-5.878
M16
G05
M30
