%TF.GenerationSoftware,KiCad,Pcbnew,8.0.7*%
%TF.CreationDate,2024-12-30T14:18:56+04:00*%
%TF.ProjectId,ergoblock,6572676f-626c-46f6-936b-2e6b69636164,v1.0.0*%
%TF.SameCoordinates,Original*%
%TF.FileFunction,Soldermask,Bot*%
%TF.FilePolarity,Negative*%
%FSLAX46Y46*%
G04 Gerber Fmt 4.6, Leading zero omitted, Abs format (unit mm)*
G04 Created by KiCad (PCBNEW 8.0.7) date 2024-12-30 14:18:56*
%MOMM*%
%LPD*%
G01*
G04 APERTURE LIST*
G04 Aperture macros list*
%AMRoundRect*
0 Rectangle with rounded corners*
0 $1 Rounding radius*
0 $2 $3 $4 $5 $6 $7 $8 $9 X,Y pos of 4 corners*
0 Add a 4 corners polygon primitive as box body*
4,1,4,$2,$3,$4,$5,$6,$7,$8,$9,$2,$3,0*
0 Add four circle primitives for the rounded corners*
1,1,$1+$1,$2,$3*
1,1,$1+$1,$4,$5*
1,1,$1+$1,$6,$7*
1,1,$1+$1,$8,$9*
0 Add four rect primitives between the rounded corners*
20,1,$1+$1,$2,$3,$4,$5,0*
20,1,$1+$1,$4,$5,$6,$7,0*
20,1,$1+$1,$6,$7,$8,$9,0*
20,1,$1+$1,$8,$9,$2,$3,0*%
G04 Aperture macros list end*
%ADD10C,1.801800*%
%ADD11C,3.100000*%
%ADD12C,3.529000*%
%ADD13RoundRect,0.050000X-1.300000X-1.300000X1.300000X-1.300000X1.300000X1.300000X-1.300000X1.300000X0*%
%ADD14RoundRect,0.050000X-0.450000X-0.600000X0.450000X-0.600000X0.450000X0.600000X-0.450000X0.600000X0*%
%ADD15RoundRect,0.050000X-1.505993X-1.054507X1.054507X-1.505993X1.505993X1.054507X-1.054507X1.505993X0*%
%ADD16RoundRect,0.050000X-0.876300X0.876300X-0.876300X-0.876300X0.876300X-0.876300X0.876300X0.876300X0*%
%ADD17C,1.852600*%
%ADD18RoundRect,0.050000X-1.181751X-1.408356X1.408356X-1.181751X1.181751X1.408356X-1.408356X1.181751X0*%
%ADD19RoundRect,0.050000X-0.661409X-0.353606X0.154268X-0.733963X0.661409X0.353606X-0.154268X0.733963X0*%
%ADD20RoundRect,0.050000X-0.395994X-0.636937X0.500581X-0.558497X0.395994X0.636937X-0.500581X0.558497X0*%
%ADD21RoundRect,0.050000X-0.547352X-0.512743X0.338975X-0.669026X0.547352X0.512743X-0.338975X0.669026X0*%
%ADD22C,1.600000*%
%ADD23O,2.300000X1.700000*%
%ADD24O,3.400000X1.700000*%
%ADD25RoundRect,0.050000X-1.727604X-0.628796X0.628796X-1.727604X1.727604X0.628796X-0.628796X1.727604X0*%
%ADD26RoundRect,0.050000X-0.550000X0.900000X-0.550000X-0.900000X0.550000X-0.900000X0.550000X0.900000X0*%
G04 APERTURE END LIST*
D10*
%TO.C,S6*%
X162500000Y-116000000D03*
D11*
X163000000Y-112250000D03*
X168000000Y-110050000D03*
X168000000Y-110050000D03*
D12*
X168000000Y-116000000D03*
D11*
X173000000Y-112250000D03*
D10*
X173500000Y-116000000D03*
D13*
X164725000Y-110050000D03*
X176275000Y-112250000D03*
%TD*%
D10*
%TO.C,S1*%
X144500000Y-150000000D03*
D11*
X145000000Y-146250000D03*
X150000000Y-144050000D03*
X150000000Y-144050000D03*
D12*
X150000000Y-150000000D03*
D11*
X155000000Y-146250000D03*
D10*
X155500000Y-150000000D03*
D13*
X146725000Y-144050000D03*
X158275000Y-146250000D03*
%TD*%
D14*
%TO.C,D3*%
X148350000Y-121000000D03*
X151650000Y-121000000D03*
%TD*%
%TO.C,D6*%
X166350000Y-121000000D03*
X169650000Y-121000000D03*
%TD*%
%TO.C,D14*%
X220350000Y-125000000D03*
X223650000Y-125000000D03*
%TD*%
D10*
%TO.C,S10*%
X198500000Y-132000000D03*
D11*
X199000000Y-128250000D03*
X204000000Y-126050000D03*
X204000000Y-126050000D03*
D12*
X204000000Y-132000000D03*
D11*
X209000000Y-128250000D03*
D10*
X209500000Y-132000000D03*
D13*
X200725000Y-126050000D03*
X212275000Y-128250000D03*
%TD*%
D14*
%TO.C,D10*%
X202350000Y-137000000D03*
X205650000Y-137000000D03*
%TD*%
%TO.C,D8*%
X184350000Y-126000000D03*
X187650000Y-126000000D03*
%TD*%
D10*
%TO.C,S20*%
X229083557Y-157044935D03*
D11*
X230227142Y-153438730D03*
X235533207Y-152140394D03*
X235533207Y-152140394D03*
D12*
X234500000Y-158000000D03*
D11*
X240075219Y-155175212D03*
D10*
X239916443Y-158955065D03*
D15*
X232307961Y-151571696D03*
X243300465Y-155743910D03*
%TD*%
D16*
%TO.C,MCU1*%
X253380000Y-99030000D03*
D17*
X253380000Y-101570000D03*
X253380000Y-104110000D03*
X253380000Y-106650000D03*
X253380000Y-109190000D03*
X253380000Y-111730000D03*
X253380000Y-114270000D03*
X253380000Y-116810000D03*
X253380000Y-119350000D03*
X253380000Y-121890000D03*
X253380000Y-124430000D03*
X253380000Y-126970000D03*
X268620000Y-99030000D03*
X268620000Y-101570000D03*
X268620000Y-104110000D03*
X268620000Y-106650000D03*
X268620000Y-109190000D03*
X268620000Y-111730000D03*
X268620000Y-114270000D03*
X268620000Y-116810000D03*
X268620000Y-119350000D03*
X268620000Y-121890000D03*
X268620000Y-124430000D03*
X268620000Y-126970000D03*
%TD*%
D14*
%TO.C,D17*%
X238350000Y-125000000D03*
X241650000Y-125000000D03*
%TD*%
D10*
%TO.C,S14*%
X216500000Y-120000000D03*
D11*
X217000000Y-116250000D03*
X222000000Y-114050000D03*
X222000000Y-114050000D03*
D12*
X222000000Y-120000000D03*
D11*
X227000000Y-116250000D03*
D10*
X227500000Y-120000000D03*
D13*
X218725000Y-114050000D03*
X230275000Y-116250000D03*
%TD*%
D10*
%TO.C,S2*%
X144500000Y-133000000D03*
D11*
X145000000Y-129250000D03*
X150000000Y-127050000D03*
X150000000Y-127050000D03*
D12*
X150000000Y-133000000D03*
D11*
X155000000Y-129250000D03*
D10*
X155500000Y-133000000D03*
D13*
X146725000Y-127050000D03*
X158275000Y-129250000D03*
%TD*%
D10*
%TO.C,S3*%
X144500000Y-116000000D03*
D11*
X145000000Y-112250000D03*
X150000000Y-110050000D03*
X150000000Y-110050000D03*
D12*
X150000000Y-116000000D03*
D11*
X155000000Y-112250000D03*
D10*
X155500000Y-116000000D03*
D13*
X146725000Y-110050000D03*
X158275000Y-112250000D03*
%TD*%
D14*
%TO.C,D12*%
X202350000Y-103000000D03*
X205650000Y-103000000D03*
%TD*%
%TO.C,D13*%
X220350000Y-142000000D03*
X223650000Y-142000000D03*
%TD*%
%TO.C,D11*%
X202350000Y-120000000D03*
X205650000Y-120000000D03*
%TD*%
D10*
%TO.C,S13*%
X216500000Y-137000000D03*
D11*
X217000000Y-133250000D03*
X222000000Y-131050000D03*
X222000000Y-131050000D03*
D12*
X222000000Y-137000000D03*
D11*
X227000000Y-133250000D03*
D10*
X227500000Y-137000000D03*
D13*
X218725000Y-131050000D03*
X230275000Y-133250000D03*
%TD*%
D14*
%TO.C,D1*%
X148350000Y-155000000D03*
X151650000Y-155000000D03*
%TD*%
D10*
%TO.C,S18*%
X234500000Y-103000000D03*
D11*
X235000000Y-99250000D03*
X240000000Y-97050000D03*
X240000000Y-97050000D03*
D12*
X240000000Y-103000000D03*
D11*
X245000000Y-99250000D03*
D10*
X245500000Y-103000000D03*
D13*
X236725000Y-97050000D03*
X248275000Y-99250000D03*
%TD*%
D10*
%TO.C,S4*%
X162500000Y-150000000D03*
D11*
X163000000Y-146250000D03*
X168000000Y-144050000D03*
X168000000Y-144050000D03*
D12*
X168000000Y-150000000D03*
D11*
X173000000Y-146250000D03*
D10*
X173500000Y-150000000D03*
D13*
X164725000Y-144050000D03*
X176275000Y-146250000D03*
%TD*%
D14*
%TO.C,D5*%
X166350000Y-138000000D03*
X169650000Y-138000000D03*
%TD*%
D10*
%TO.C,S9*%
X180500000Y-104000000D03*
D11*
X181000000Y-100250000D03*
X186000000Y-98050000D03*
X186000000Y-98050000D03*
D12*
X186000000Y-104000000D03*
D11*
X191000000Y-100250000D03*
D10*
X191500000Y-104000000D03*
D13*
X182725000Y-98050000D03*
X194275000Y-100250000D03*
%TD*%
D10*
%TO.C,S7*%
X180500000Y-138000000D03*
D11*
X181000000Y-134250000D03*
X186000000Y-132050000D03*
X186000000Y-132050000D03*
D12*
X186000000Y-138000000D03*
D11*
X191000000Y-134250000D03*
D10*
X191500000Y-138000000D03*
D13*
X182725000Y-132050000D03*
X194275000Y-134250000D03*
%TD*%
D10*
%TO.C,S8*%
X180500000Y-121000000D03*
D11*
X181000000Y-117250000D03*
X186000000Y-115050000D03*
X186000000Y-115050000D03*
D12*
X186000000Y-121000000D03*
D11*
X191000000Y-117250000D03*
D10*
X191500000Y-121000000D03*
D13*
X182725000Y-115050000D03*
X194275000Y-117250000D03*
%TD*%
D10*
%TO.C,S19*%
X205020929Y-157479357D03*
D11*
X205192190Y-153700049D03*
X209981423Y-151072642D03*
X209981423Y-151072642D03*
D12*
X210500000Y-157000000D03*
D11*
X215154139Y-152828491D03*
D10*
X215979071Y-156520643D03*
D18*
X206718886Y-151358077D03*
X218416677Y-152543056D03*
%TD*%
D14*
%TO.C,D15*%
X220350000Y-108000000D03*
X223650000Y-108000000D03*
%TD*%
%TO.C,D18*%
X238350000Y-108000000D03*
X241650000Y-108000000D03*
%TD*%
D19*
%TO.C,D21*%
X254391501Y-169334219D03*
X257382317Y-170728859D03*
%TD*%
D14*
%TO.C,D7*%
X184350000Y-143000000D03*
X187650000Y-143000000D03*
%TD*%
%TO.C,D2*%
X148350000Y-138000000D03*
X151650000Y-138000000D03*
%TD*%
D10*
%TO.C,S15*%
X216500000Y-103000000D03*
D11*
X217000000Y-99250000D03*
X222000000Y-97050000D03*
X222000000Y-97050000D03*
D12*
X222000000Y-103000000D03*
D11*
X227000000Y-99250000D03*
D10*
X227500000Y-103000000D03*
D13*
X218725000Y-97050000D03*
X230275000Y-99250000D03*
%TD*%
D10*
%TO.C,S16*%
X234500000Y-137000000D03*
D11*
X235000000Y-133250000D03*
X240000000Y-131050000D03*
X240000000Y-131050000D03*
D12*
X240000000Y-137000000D03*
D11*
X245000000Y-133250000D03*
D10*
X245500000Y-137000000D03*
D13*
X236725000Y-131050000D03*
X248275000Y-133250000D03*
%TD*%
D14*
%TO.C,D9*%
X184350000Y-109000000D03*
X187650000Y-109000000D03*
%TD*%
D20*
%TO.C,D19*%
X209292058Y-162124781D03*
X212579500Y-161837167D03*
%TD*%
D21*
%TO.C,D20*%
X232006826Y-162637520D03*
X235256692Y-163210558D03*
%TD*%
D10*
%TO.C,S12*%
X198500000Y-98000000D03*
D11*
X199000000Y-94250000D03*
X204000000Y-92050000D03*
X204000000Y-92050000D03*
D12*
X204000000Y-98000000D03*
D11*
X209000000Y-94250000D03*
D10*
X209500000Y-98000000D03*
D13*
X200725000Y-92050000D03*
X212275000Y-94250000D03*
%TD*%
D10*
%TO.C,S5*%
X162500000Y-133000000D03*
D11*
X163000000Y-129250000D03*
X168000000Y-127050000D03*
X168000000Y-127050000D03*
D12*
X168000000Y-133000000D03*
D11*
X173000000Y-129250000D03*
D10*
X173500000Y-133000000D03*
D13*
X164725000Y-127050000D03*
X176275000Y-129250000D03*
%TD*%
D10*
%TO.C,S11*%
X198500000Y-115000000D03*
D11*
X199000000Y-111250000D03*
X204000000Y-109050000D03*
X204000000Y-109050000D03*
D12*
X204000000Y-115000000D03*
D11*
X209000000Y-111250000D03*
D10*
X209500000Y-115000000D03*
D13*
X200725000Y-109050000D03*
X212275000Y-111250000D03*
%TD*%
D14*
%TO.C,D4*%
X166350000Y-155000000D03*
X169650000Y-155000000D03*
%TD*%
D22*
%TO.C,TRRS1*%
X268400000Y-147000000D03*
X261400000Y-147000000D03*
D23*
X266800000Y-144700000D03*
X266800000Y-149300000D03*
X263800000Y-144700000D03*
X263800000Y-149300000D03*
D24*
X259250000Y-144700000D03*
X259250000Y-149300000D03*
%TD*%
D10*
%TO.C,S21*%
X253015307Y-163175600D03*
D11*
X255053280Y-159988254D03*
X260514579Y-160107469D03*
X260514579Y-160107469D03*
D12*
X258000000Y-165500000D03*
D11*
X264116357Y-164214437D03*
D10*
X262984693Y-167824400D03*
D25*
X257546421Y-158723394D03*
X267084515Y-165598512D03*
%TD*%
D10*
%TO.C,S17*%
X234500000Y-120000000D03*
D11*
X235000000Y-116250000D03*
X240000000Y-114050000D03*
X240000000Y-114050000D03*
D12*
X240000000Y-120000000D03*
D11*
X245000000Y-116250000D03*
D10*
X245500000Y-120000000D03*
D13*
X236725000Y-114050000D03*
X248275000Y-116250000D03*
%TD*%
D26*
%TO.C,B2*%
X262850000Y-130900000D03*
X262850000Y-137100000D03*
X259150000Y-130900000D03*
X259150000Y-137100000D03*
%TD*%
D14*
%TO.C,D16*%
X238350000Y-142000000D03*
X241650000Y-142000000D03*
%TD*%
M02*
